<svg width="56" height="56" viewBox="0 0 56 56" fill="none" xmlns="http://www.w3.org/2000/svg">
<g clip-path="url(#clip0)">
<path d="M22.9653 34.453V34.4387C22.9653 33.8348 23.455 33.345 24.0591 33.345C24.6632 33.345 25.1528 33.8348 25.1528 34.4387V34.453C25.1528 35.057 24.6632 35.5468 24.0591 35.5468C23.455 35.5468 22.9653 35.0571 22.9653 34.453Z" fill="#212121"/>
<path d="M42.2888 8.17513C42.2888 8.77472 42.5223 9.33844 42.9463 9.76238C43.3735 10.1895 43.3735 10.8821 42.9463 11.3093C42.7327 11.5229 42.4528 11.6296 42.173 11.6296C41.8931 11.6296 41.6131 11.5229 41.3996 11.3093C39.6714 9.58115 39.6714 6.76923 41.3996 5.04099C42.2748 4.16577 42.2748 2.74171 41.3996 1.86649C40.9725 1.43938 40.9725 0.746818 41.3996 0.3196C41.8267 -0.10751 42.5192 -0.10751 42.9465 0.3196C43.7835 1.15676 44.2446 2.26976 44.2446 3.45363C44.2446 4.63762 43.7836 5.75062 42.9465 6.58777C42.5223 7.01193 42.2888 7.57554 42.2888 8.17513Z" fill="#212121"/>
<path d="M36.6481 9.76315C37.0752 10.1903 37.0752 10.8828 36.6481 11.3099C36.4345 11.5235 36.1546 11.6303 35.8747 11.6303C35.5949 11.6303 35.3149 11.5234 35.1014 11.3099C33.3733 9.58181 33.3733 6.76989 35.1014 5.04176C35.5253 4.61783 35.7588 4.05411 35.7588 3.45451C35.7588 2.85492 35.5253 2.2912 35.1014 1.86726C34.6742 1.44015 34.6742 0.747592 35.1014 0.320373C35.5285 -0.106846 36.221 -0.106736 36.6482 0.320373C38.3764 2.0485 38.3764 4.86042 36.6482 6.58854C35.7729 7.46376 35.7729 8.88783 36.6481 9.76315Z" fill="#212121"/>
<path d="M30.3502 9.76325C30.7773 10.1904 30.7773 10.8829 30.3502 11.31C30.1365 11.5236 29.8567 11.6304 29.5768 11.6304C29.2969 11.6304 29.0169 11.5235 28.8034 11.31C27.0754 9.5819 27.0754 6.76998 28.8034 5.04186C29.2273 4.61792 29.4608 4.0542 29.4608 3.45461C29.4608 2.85501 29.2273 2.2913 28.8034 1.86736C28.3763 1.44025 28.3762 0.747686 28.8034 0.320576C29.2306 -0.106643 29.923 -0.106424 30.3502 0.320576C31.1873 1.15773 31.6484 2.27073 31.6484 3.45461C31.6484 4.63859 31.1874 5.75159 30.3503 6.58864C29.4749 7.46386 29.4749 8.88792 30.3502 9.76325Z" fill="#212121"/>
<path d="M11.1973 17.7598H16.625V14.3691C16.625 13.7651 17.1147 13.2754 17.7188 13.2754H54.0312C54.6353 13.2754 55.125 13.7651 55.125 14.3691V36.4427C55.125 37.0466 54.6353 37.5364 54.0312 37.5364C53.4272 37.5364 52.9375 37.0466 52.9375 36.4427V15.4629H25.1529V30.0638C25.1529 30.6678 24.6632 31.1575 24.0591 31.1575C23.455 31.1575 22.9654 30.6678 22.9654 30.0638V15.4629H18.8125V18.8549V23.7754V44.0781V48.8906C18.8125 51.6045 21.0205 53.8125 23.7344 53.8125H48.0156C50.7295 53.8125 52.9375 51.6045 52.9375 48.8906V45.1927C52.9375 44.5887 53.4272 44.0989 54.0312 44.0989C54.6353 44.0989 55.125 44.5887 55.125 45.1927V48.8906C55.125 52.8107 51.9357 56 48.0156 56H23.7344C20.2244 56 17.3024 53.4426 16.7289 50.0938H11.1973C5.5055 50.0938 0.875 45.4631 0.875 39.7715V28.082C0.875 22.3904 5.5055 17.7598 11.1973 17.7598ZM16.625 24.8691H11.1973C9.42572 24.8691 7.98438 26.3105 7.98438 28.082V39.7715C7.98438 41.5431 9.42572 42.9844 11.1973 42.9844H16.625V24.8691ZM3.0625 39.7715C3.0625 44.2571 6.71169 47.9062 11.1973 47.9062H16.625V45.1719H11.1973C8.21942 45.1719 5.79688 42.7493 5.79688 39.7715V28.082C5.79688 25.1042 8.21942 22.6816 11.1973 22.6816H16.625V19.9473H11.1973C6.71169 19.9473 3.0625 23.5965 3.0625 28.082V39.7715Z" fill="#212121"/>
<path d="M54.0312 41.9114C53.7436 41.9114 53.4614 41.7945 53.258 41.5909C53.0545 41.3874 52.9375 41.1053 52.9375 40.8176C52.9375 40.53 53.0545 40.2478 53.258 40.0445C53.4614 39.841 53.7436 39.7239 54.0312 39.7239C54.3189 39.7239 54.6011 39.8409 54.8045 40.0445C55.008 40.2478 55.125 40.53 55.125 40.8176C55.125 41.1053 55.008 41.3875 54.8045 41.5909C54.6011 41.7943 54.3189 41.9114 54.0312 41.9114Z" fill="#212121"/>
</g>
<defs>
<clipPath id="clip0">
<rect width="56" height="56" fill="white" transform="matrix(-1 0 0 1 56 0)"/>
</clipPath>
</defs>
</svg>
