<svg width="56" height="56" viewBox="0 0 56 56" fill="none" xmlns="http://www.w3.org/2000/svg">
<path d="M31.5854 13.2428C31.6508 13.7986 32.1233 14.2075 32.6702 14.2075C32.7129 14.2075 32.7565 14.2054 32.8001 14.1998C33.3995 14.1289 33.8285 13.5842 33.7571 12.9847C33.6862 12.3845 33.1414 11.9568 32.5424 12.0277C31.9417 12.0991 31.5141 12.6425 31.5854 13.2428Z" fill="#212121"/>
<path d="M23.1897 14.2011C23.2312 14.2054 23.273 14.2075 23.3145 14.2075C23.8635 14.2075 24.336 13.7965 24.3993 13.2377C24.4685 12.6383 24.0374 12.0957 23.4371 12.0277C22.8364 11.9589 22.2951 12.39 22.2263 12.9903C22.1583 13.591 22.5894 14.1323 23.1897 14.2011Z" fill="#212121"/>
<path d="M23.9839 9.44903C24.1258 9.51141 24.2736 9.53961 24.4189 9.53961C24.8414 9.53961 25.2439 9.29351 25.4233 8.8825C25.6639 8.32794 25.4101 7.68365 24.8564 7.44311C24.3031 7.20257 23.6579 7.45635 23.417 8.00964C23.1764 8.5642 23.4302 9.20849 23.9839 9.44903Z" fill="#212121"/>
<path d="M31.5239 9.53957C31.6748 9.53957 31.8281 9.50796 31.9747 9.44131C32.525 9.19179 32.7685 8.54323 32.5194 7.99294H32.5181C32.2691 7.44308 31.6201 7.19912 31.0711 7.44948C30.5212 7.699 30.2772 8.34756 30.5276 8.89785C30.7105 9.30117 31.1074 9.53957 31.5239 9.53957Z" fill="#212121"/>
<path d="M27.9989 6.67309C28.0066 6.67309 28.0143 6.67309 28.022 6.6718C28.6257 6.65984 29.1047 6.16082 29.094 5.55712C29.082 4.95342 28.5821 4.4732 27.9784 4.48559C27.3747 4.49755 26.8945 4.99615 26.9065 5.59984C26.9184 6.19713 27.4051 6.67309 27.9989 6.67309Z" fill="#212121"/>
<path d="M27.8906 17.8281C28.4943 17.8281 28.9844 17.3381 28.9844 16.7344C28.9844 16.1307 28.4943 15.6406 27.8906 15.6406C27.2869 15.6406 26.7969 16.1307 26.7969 16.7344C26.7969 17.3381 27.2869 17.8281 27.8906 17.8281Z" fill="#212121"/>
<path d="M27.8906 13.4531C28.4943 13.4531 28.9844 12.9631 28.9844 12.3594C28.9844 11.7557 28.4943 11.2656 27.8906 11.2656C27.2869 11.2656 26.7969 11.7557 26.7969 12.3594C26.7969 12.9631 27.2869 13.4531 27.8906 13.4531Z" fill="#212121"/>
<path d="M27.8906 22.2031C28.4943 22.2031 28.9844 21.7131 28.9844 21.1094C28.9844 20.5057 28.4943 20.0156 27.8906 20.0156C27.2869 20.0156 26.7969 20.5057 26.7969 21.1094C26.7969 21.7131 27.2869 22.2031 27.8906 22.2031Z" fill="#212121"/>
<path d="M43.6944 18.0943C43.6034 18.0601 41.6398 17.35 38.9375 17.9824V17.788C38.9375 13.1361 37.8595 8.74658 35.9028 5.42773C33.8387 1.92773 31.0321 0 28 0C24.9678 0 22.1612 1.92773 20.0972 5.42773C18.1404 8.74658 17.0625 13.1361 17.0625 17.788V17.9824C14.3602 17.35 12.3965 18.0601 12.3055 18.0943C11.8095 18.2789 11.5173 18.7924 11.6112 19.3132C11.7035 19.8259 12.1445 20.201 12.6636 20.2126C13.0348 20.3074 14.1538 21.3875 15.2364 23.6177C16.3968 26.0069 17.0625 28.7532 17.0625 31.1526C17.0625 35.5776 15.9687 39.8903 15.9687 44.3174C15.9687 47.541 17.1308 50.4838 19.2414 52.6042C21.4409 54.814 24.4538 55.9885 27.9538 56H28.0111C31.6397 56 34.7001 54.861 36.8636 52.7047C38.9358 50.6393 40.0312 47.7823 40.0312 44.4421C40.0312 39.9736 38.9375 35.6187 38.9375 31.1526C38.9375 28.7532 39.6031 26.0069 40.7631 23.6177C41.8462 21.3875 42.9647 20.3074 43.3364 20.2126C43.8551 20.201 44.2964 19.8259 44.3887 19.3132C44.4827 18.7924 44.1905 18.2789 43.6944 18.0943ZM21.9814 6.539C23.6361 3.73285 25.7736 2.1875 28 2.1875C30.2264 2.1875 32.3639 3.73285 34.0182 6.539C35.7797 9.52631 36.75 13.5211 36.75 17.788V18.7591C35.4153 19.4004 34.1506 20.3292 32.9774 21.5345C31.1197 23.4421 29.4834 26.0552 28.1136 29.301C28.0765 29.3646 28.0376 29.4253 27.9991 29.4877C27.9615 29.4257 27.9235 29.3642 27.8859 29.301C26.5162 26.0552 24.8802 23.4421 23.0226 21.5345C21.8493 20.3297 20.5847 19.4004 19.25 18.7591V17.788C19.25 13.5211 20.2203 9.52631 21.9814 6.539ZM35.3191 51.1555C33.5653 52.9037 31.0168 53.8206 27.9611 53.8125C22.1882 53.7933 18.1562 49.8887 18.1562 44.3174C18.1562 41.4301 18.4156 39.7211 18.6899 37.9113C18.9654 36.0967 19.25 34.2203 19.25 31.1531C19.25 28.3333 18.4583 25.1451 17.0779 22.4069C16.7715 21.7994 16.2328 20.8197 15.5475 19.9404C16.1046 19.996 16.7335 20.1216 17.412 20.36C21.543 21.8122 24.0907 26.059 25.745 29.8577C27.0733 32.9078 29.9867 35.0038 32.6565 36.803C35.6678 38.832 37.8437 40.2983 37.8437 44.4421C37.8437 47.188 36.9704 49.5093 35.3191 51.1555ZM38.9217 22.4069C37.5417 25.1451 36.75 28.3328 36.75 31.1526C36.75 34.0336 37.0012 35.8639 37.2597 37.5793C36.2433 36.5834 35.0538 35.7802 33.8789 34.9885C32.3374 33.9498 30.7583 32.8856 29.3902 31.3556C29.6137 31.0347 30.0837 30.2597 30.1025 30.2157C32.3156 24.9413 35.2499 21.5336 38.588 20.36C39.2665 20.1212 39.8958 19.996 40.4529 19.9404C39.7672 20.8193 39.2284 21.799 38.9217 22.4069Z" fill="#212121"/>
<path d="M26.903 48.5625C26.9022 48.5625 26.9022 48.5625 26.9009 48.5625C26.2985 48.5625 25.8084 49.0526 25.8071 49.655C25.8071 49.9472 25.9208 50.2219 26.1267 50.4283C26.3331 50.6351 26.6078 50.75 26.9 50.75H26.9022C27.5037 50.75 27.9946 50.2599 27.9946 49.6575C27.9959 49.3653 27.8818 49.0906 27.6755 48.8842C27.4695 48.6774 27.1953 48.5625 26.903 48.5625Z" fill="#212121"/>
<path d="M23.7055 41.3416C23.7055 40.5632 23.7418 39.8907 23.7713 39.4639C23.8269 38.6636 23.838 37.5156 22.7476 37.5156C22.1952 37.5156 21.7304 37.9301 21.6637 38.4803L21.6624 38.4859C21.292 40.3756 21.4518 42.5704 21.7171 44.4673C21.8902 45.7025 22.182 46.786 22.5866 47.6918C22.8258 48.2271 23.5017 48.4779 24.0337 48.2365C24.5839 47.9883 24.8279 47.3384 24.5792 46.7894C23.7756 45.0484 23.7004 42.399 23.7055 41.3416Z" fill="#212121"/>
<path d="M24.1719 17.5C24.1719 18.1041 23.6823 18.5938 23.0781 18.5938C22.474 18.5938 21.9844 18.1041 21.9844 17.5C21.9844 16.8959 22.474 16.4062 23.0781 16.4062C23.6823 16.4062 24.1719 16.8959 24.1719 17.5Z" fill="#212121"/>
<path d="M34.0156 17.5C34.0156 18.1041 33.526 18.5938 32.9219 18.5938C32.3177 18.5938 31.8281 18.1041 31.8281 17.5C31.8281 16.8959 32.3177 16.4062 32.9219 16.4062C33.526 16.4062 34.0156 16.8959 34.0156 17.5Z" fill="#212121"/>
</svg>
