<svg width="56" height="56" viewBox="0 0 56 56" fill="none" xmlns="http://www.w3.org/2000/svg">
<g clip-path="url(#clip0)">
<path d="M40.6448 21.6784C40.6448 9.90409 29.0539 0.587556 28.5609 0.196372C28.2323 -0.0638296 27.7679 -0.0638296 27.4389 0.196372C26.9458 0.587556 15.355 9.90409 15.355 21.6784C15.355 32.4816 25.1099 41.2094 27.0967 42.8782V52.3875C27.0967 52.8863 27.5011 53.2907 27.9999 53.2907C28.4987 53.2907 28.9031 52.8863 28.9031 52.3875V42.8782C30.8903 41.2094 40.6448 32.4816 40.6448 21.6784ZM28.9031 40.4469V30.2254L33.9973 25.9859C34.381 25.6666 34.433 25.0968 34.1137 24.7131C33.7944 24.3294 33.2246 24.2774 32.8414 24.5967L28.9031 27.8752V24.8044L33.9973 20.5644C34.381 20.2456 34.433 19.6758 34.1137 19.2921C33.7944 18.9084 33.2246 18.8563 32.8414 19.1756L28.9031 22.4559V18.4819L33.9973 14.242C34.381 13.9231 34.433 13.3533 34.1137 12.9696C33.7944 12.5859 33.2246 12.5339 32.8414 12.8532L28.9031 16.1335V9.03352C28.9031 8.53473 28.4987 8.13031 27.9999 8.13031C27.5011 8.13031 27.0967 8.53473 27.0967 9.03352V16.1335L23.1588 12.855C22.7751 12.5357 22.2053 12.5877 21.886 12.9714C21.5667 13.3551 21.6192 13.9249 22.0029 14.2442L27.0967 18.4837V22.4577L23.1588 19.1792C22.7751 18.8599 22.2053 18.9119 21.886 19.2956C21.5667 19.6793 21.6192 20.2491 22.0029 20.5684L27.0967 24.8061V27.877L23.1588 24.5984C22.7751 24.2791 22.2053 24.3312 21.886 24.7148C21.5667 25.0985 21.6192 25.6683 22.0029 25.9876L27.0967 30.2254V40.4469C24.0259 37.5657 17.1614 30.1813 17.1614 21.6784C17.1614 12.2 25.7048 4.09366 27.9999 2.0879C30.2949 4.09366 38.8384 12.2 38.8384 21.6784C38.8384 30.1813 31.9739 37.5657 28.9031 40.4469Z" fill="#212121"/>
<path d="M21.6776 47.8717H20.7743V41.2392C20.7774 40.0409 20.3011 38.8912 19.4513 38.0466L11.8481 30.4395C10.791 29.3868 9.08116 29.3868 8.02403 30.4395L7.22623 31.2399V21.6786C7.22535 20.6749 6.80726 19.717 6.07208 19.0338C5.33734 18.3503 4.35166 18.0032 3.35055 18.0746C1.4255 18.2621 -0.0329513 19.8969 0.000566197 21.8312V34.7333C0.000125177 35.857 0.418653 36.9401 1.175 37.771L9.03264 46.4146V47.8717H8.12944C7.63064 47.8717 7.22623 48.2761 7.22623 48.7749V55.0974C7.22623 55.5961 7.63064 56.0006 8.12944 56.0006H21.6776C22.1763 56.0006 22.5808 55.5961 22.5808 55.0974V48.7749C22.5808 48.2761 22.1763 47.8717 21.6776 47.8717ZM2.51173 36.5551C2.05792 36.0572 1.80654 35.4071 1.80698 34.7333V21.8312C1.78273 20.8478 2.50423 20.0041 3.47977 19.8766C4.0037 19.8391 4.51837 20.031 4.88971 20.4023C5.23017 20.7397 5.42114 21.1993 5.41981 21.6786V32.6715C5.41761 33.3908 5.70339 34.081 6.21365 34.5882L11.1037 39.4782C11.4583 39.8204 12.0214 39.8156 12.3698 39.4672C12.7182 39.1188 12.7231 38.5551 12.3809 38.201L8.23528 34.055C8.06637 33.8869 7.97155 33.6585 7.97155 33.4204C7.97155 33.1818 8.06637 32.9533 8.23528 32.7853L9.30122 31.7202C9.65272 31.3727 10.219 31.3727 10.5709 31.7202L18.1741 39.3243C18.6808 39.8332 18.9662 40.5212 18.9679 41.2392V47.8717H10.8391V45.7155L2.51173 36.5551ZM20.7743 54.1941H9.03264V49.6781H20.7743V54.1941Z" fill="#212121"/>
<path d="M52.6491 18.0746C51.6485 18.0032 50.6624 18.3503 49.9276 19.0338C49.1929 19.717 48.7748 20.6749 48.7735 21.6786V31.2399L47.9761 30.4421C46.919 29.3894 45.2092 29.3894 44.152 30.4421L36.5489 38.0466C35.699 38.8912 35.2227 40.0409 35.2254 41.2392V47.8717H34.3222C33.8234 47.8717 33.4189 48.2761 33.4189 48.7749V55.0974C33.4189 55.5961 33.8234 56.0006 34.3222 56.0006H47.8703C48.3691 56.0006 48.7735 55.5961 48.7735 55.0974V48.7749C48.7735 48.2761 48.3691 47.8717 47.8703 47.8717H46.9671V46.4146L54.8251 37.771C55.5815 36.9401 56 35.857 55.9991 34.7333V21.8312C56.0326 19.8969 54.5746 18.2621 52.6491 18.0746ZM46.9671 54.1941H35.2254V49.6781H46.9671V54.1941ZM54.1927 34.7333C54.1936 35.4071 53.9422 36.0572 53.4884 36.5551L45.1606 45.7155V47.8717H37.0318V41.2392C37.0335 40.5212 37.3189 39.8323 37.8256 39.3234L45.4319 31.7202C45.7834 31.3727 46.3496 31.3727 46.7016 31.7202L47.7675 32.7862C48.1155 33.1359 48.1155 33.7008 47.7675 34.0506L43.6197 38.1984C43.3851 38.425 43.2907 38.7607 43.3736 39.0764C43.4561 39.3922 43.7031 39.6392 44.0188 39.7216C44.3346 39.8041 44.6702 39.7102 44.8969 39.4751L49.7869 34.5855C50.2959 34.0784 50.5812 33.3895 50.5799 32.6715V21.6786C50.579 21.1993 50.77 20.7397 51.11 20.4023C51.4818 20.031 51.996 19.8396 52.5199 19.8766C53.4955 20.0041 54.2174 20.8478 54.1927 21.8312V34.7333Z" fill="#212121"/>
<path d="M27.3587 54.4557C27.1933 54.6286 27.0998 54.8575 27.0967 55.097C27.0984 55.1574 27.1042 55.2178 27.1148 55.2773C27.1249 55.3342 27.143 55.3889 27.169 55.4401C27.1889 55.4974 27.2162 55.5521 27.2502 55.6028C27.2837 55.65 27.3198 55.695 27.3587 55.7382C27.715 56.0875 28.2853 56.0875 28.6412 55.7382L28.7497 55.6028C28.7836 55.5521 28.811 55.4974 28.8308 55.4401C28.8573 55.3889 28.8754 55.3342 28.8842 55.2773C28.8956 55.2178 28.9018 55.1574 28.9031 55.097C28.9053 54.73 28.6853 54.3979 28.3466 54.2572C28.0074 54.1165 27.6171 54.1951 27.3587 54.4557Z" fill="#212121"/>
<path d="M10.8388 52.3875H14.4517C14.9505 52.3875 15.3549 51.9831 15.3549 51.4843C15.3549 50.9855 14.9505 50.5811 14.4517 50.5811H10.8388C10.34 50.5811 9.93555 50.9855 9.93555 51.4843C9.93555 51.9831 10.34 52.3875 10.8388 52.3875Z" fill="#212121"/>
<path d="M16.8181 52.3152C16.9266 52.3616 17.0435 52.3858 17.1613 52.3876C17.5282 52.3893 17.8603 52.1693 18.001 51.8306C18.1417 51.4918 18.0632 51.1011 17.8025 50.8431C17.5427 50.5864 17.1546 50.5119 16.8181 50.653C16.7074 50.6967 16.6064 50.7611 16.52 50.8431C16.3546 51.016 16.2611 51.2449 16.258 51.4843C16.2497 51.8517 16.4741 52.1851 16.8181 52.3152Z" fill="#212121"/>
<path d="M37.0131 23.3039C37.0042 23.2475 36.9862 23.1924 36.9597 23.1412C36.9399 23.0839 36.9125 23.0292 36.8786 22.9789L36.7701 22.8435C36.408 22.5092 35.8496 22.5092 35.4876 22.8435C35.4487 22.8863 35.4126 22.9313 35.3791 22.9789C35.3451 23.0292 35.3178 23.0839 35.2979 23.1412C35.2719 23.1924 35.2538 23.2475 35.2437 23.3039C35.2335 23.3639 35.2278 23.4239 35.2256 23.4848C35.2287 23.7238 35.3222 23.9531 35.4876 24.126C35.6596 24.2927 35.8893 24.3862 36.1288 24.388C36.3692 24.3902 36.6003 24.2958 36.7705 24.126C36.9403 23.9562 37.0347 23.7247 37.032 23.4848C37.0303 23.4239 37.0241 23.3635 37.0131 23.3039Z" fill="#212121"/>
</g>
<defs>
<clipPath id="clip0">
<rect width="56" height="56" fill="white"/>
</clipPath>
</defs>
</svg>
