<svg width="56" height="56" viewBox="0 0 56 56" fill="none" xmlns="http://www.w3.org/2000/svg">
<g clip-path="url(#clip0)">
<path d="M31.4869 22.4727C31.0115 21.9868 30.5773 21.4621 30.1891 20.9041C30.0491 20.7174 29.9278 20.5307 29.8157 20.344C28.6344 18.4338 28.0103 16.2317 28.0138 13.9858C28.0113 13.3162 28.0676 12.6476 28.1819 11.9879C28.4354 10.4472 28.9839 8.96997 29.7971 7.63712C29.9372 7.42234 30.0772 7.19827 30.2266 6.9836C30.5059 6.58841 30.437 6.0454 30.0678 5.73248C29.2293 5.03312 28.172 4.64996 27.0801 4.64941H6.53984C3.96167 4.64941 1.87158 6.73939 1.87158 9.31768V47.5972C1.87158 50.1753 3.96167 52.2654 6.53984 52.2654H27.08C29.6582 52.2654 31.7483 50.1753 31.7483 47.5972V23.1169C31.7473 22.8765 31.6537 22.6458 31.4869 22.4727ZM29.8809 47.5971C29.8809 49.1439 28.6269 50.398 27.08 50.398H6.53984C4.99298 50.398 3.73891 49.1439 3.73891 47.5971V9.31768C3.73891 7.77082 4.99287 6.51674 6.53984 6.51674H27.08C27.4649 6.51368 27.8463 6.58994 28.2004 6.74082C27.2693 8.25671 26.6356 9.93607 26.333 11.6892C26.2046 12.4479 26.1421 13.2163 26.1463 13.9859C26.1438 16.5853 26.8682 19.1336 28.2377 21.3431C28.3777 21.5672 28.5178 21.7912 28.6671 21.9873C29.0351 22.5198 29.4407 23.0253 29.8808 23.4998V47.5971H29.8809Z" fill="#212121"/>
<path d="M11.2078 50.3982H6.53957C6.02391 50.3982 5.60596 50.8161 5.60596 51.3318V53.1991C5.60596 54.746 6.85992 56.0001 8.40689 56.0001H9.3405C10.8874 56.0001 12.1414 54.7461 12.1414 53.1991V51.3318C12.1414 50.8163 11.7235 50.3982 11.2078 50.3982ZM10.2741 53.1991C10.2741 53.7148 9.85605 54.1327 9.3405 54.1327H8.40689C7.89124 54.1327 7.47328 53.7148 7.47328 53.1991V52.2655H10.2742V53.1991H10.2741Z" fill="#212121"/>
<path d="M27.0799 50.3982H22.4116C21.896 50.3982 21.478 50.8161 21.478 51.3318V53.1991C21.478 54.746 22.7321 56.0001 24.279 56.0001H25.2126C26.7594 56.0001 28.0135 54.7461 28.0135 53.1991V51.3318C28.0136 50.8163 27.5956 50.3982 27.0799 50.3982ZM26.1463 53.1991C26.1463 53.7148 25.7283 54.1327 25.2127 54.1327H24.2791C23.7634 54.1327 23.3455 53.7148 23.3455 53.1991V52.2655H26.1464V53.1991H26.1463Z" fill="#212121"/>
<path d="M29.4327 20.5215H2.80519C2.28953 20.5215 1.87158 20.9394 1.87158 21.4551C1.87158 21.9707 2.28953 22.3887 2.80519 22.3887H29.4328C29.9484 22.3887 30.3664 21.9707 30.3664 21.4551C30.3664 20.9394 29.9483 20.5215 29.4327 20.5215Z" fill="#212121"/>
<path d="M6.53957 24.2561C6.02391 24.2561 5.60596 24.6741 5.60596 25.1897V30.7916C5.60596 31.3072 6.02391 31.7252 6.53957 31.7252C7.05522 31.7252 7.47318 31.3072 7.47318 30.7916V25.1897C7.47318 24.6741 7.05522 24.2561 6.53957 24.2561Z" fill="#212121"/>
<path d="M6.53957 11.1851C6.02391 11.1851 5.60596 11.603 5.60596 12.1187V17.7205C5.60596 18.2362 6.02391 18.6542 6.53957 18.6542C7.05522 18.6542 7.47318 18.2362 7.47318 17.7205V12.1187C7.47318 11.6031 7.05522 11.1851 6.53957 11.1851Z" fill="#212121"/>
<path d="M48.2186 2.57805C41.9073 -1.89316 33.1664 -0.401551 28.6952 5.90974C28.5271 6.15253 28.3683 6.3952 28.2003 6.6567C27.2592 8.19809 26.6251 9.90688 26.333 11.6891C26.2045 12.4478 26.142 13.2162 26.1462 13.9858C26.1409 16.5844 26.8621 19.1326 28.2282 21.343C28.3682 21.5671 28.5083 21.7912 28.6576 21.9872C29.1018 22.6249 29.5985 23.2246 30.1421 23.7798C30.5649 24.2151 31.0173 24.6206 31.4959 24.9935C33.9584 26.9435 37.0097 28 40.1508 27.9905C43.292 28.0008 46.3435 26.9441 48.8057 24.9935C49.8537 24.1653 50.7778 23.1914 51.55 22.1014C56.0215 15.7902 54.5297 7.04927 48.2186 2.57805ZM49.718 21.4205C45.5929 26.7042 37.9656 27.6434 32.6819 23.5182C32.2592 23.1985 31.8598 22.8491 31.4868 22.4726C31.0114 21.9867 30.5773 21.462 30.1891 20.904C30.049 20.7173 29.9277 20.5306 29.8156 20.3439C28.6343 18.4338 28.0102 16.2316 28.0137 13.9857C28.0148 13.319 28.0742 12.6535 28.1911 11.9971C28.4446 10.4565 28.9931 8.97918 29.8063 7.64632C29.9464 7.43155 30.0864 7.20747 30.2358 6.99281C32.5086 3.76867 36.2064 1.85003 40.1511 1.84839C46.8544 1.84839 52.2885 7.28253 52.2885 13.9857C52.2808 16.6807 51.3764 19.2964 49.718 21.4205Z" fill="#212121"/>
<path d="M40.1509 3.71606C39.6352 3.71606 39.2173 4.13402 39.2173 4.64967V23.3226C39.2173 23.8383 39.6352 24.2562 40.1509 24.2562C40.6665 24.2562 41.0845 23.8382 41.0845 23.3226V4.64967C41.0845 4.13402 40.6665 3.71606 40.1509 3.71606Z" fill="#212121"/>
<path d="M40.6736 6.67555L37.8727 4.80823C37.4633 4.56621 36.9373 4.67059 36.6514 5.05068C36.3415 5.46273 36.4243 6.04808 36.8363 6.35804L39.6373 8.22537C39.7891 8.32745 39.9678 8.3827 40.1507 8.38412C40.4624 8.38478 40.7539 8.22996 40.9278 7.97121C41.2154 7.5433 41.1015 6.9632 40.6736 6.67555Z" fill="#212121"/>
<path d="M43.708 5.13686C43.4456 4.69298 42.8731 4.54593 42.4292 4.8083L39.6283 6.67562C39.3695 6.84948 39.2147 7.14095 39.2153 7.45266C39.2165 7.96832 39.6355 8.38539 40.151 8.38419C40.3341 8.38277 40.5126 8.32751 40.6645 8.22543L43.4654 6.35811C43.8456 6.07222 43.95 5.54628 43.708 5.13686Z" fill="#212121"/>
<path d="M40.9358 19.9313C40.6258 19.5193 40.0405 19.4364 39.6284 19.7464L36.8275 21.6137C36.5687 21.7876 36.4139 22.079 36.4146 22.3908C36.4158 22.9064 36.8347 23.3235 37.3502 23.3223C37.5333 23.3209 37.7118 23.2656 37.8637 23.1635L40.6646 21.2962C40.6944 21.2786 40.7231 21.2594 40.7508 21.2387C41.163 20.9287 41.2457 20.3435 40.9358 19.9313Z" fill="#212121"/>
<path d="M43.4744 21.614L40.6735 19.7467C40.264 19.5047 39.7381 19.6091 39.4522 19.9892C39.1422 20.4012 39.2251 20.9866 39.6371 21.2965L42.438 23.1638C42.5899 23.2659 42.7686 23.3212 42.9515 23.3226C43.2632 23.3233 43.5547 23.1684 43.7285 22.9097C44.0162 22.4817 43.9023 21.9016 43.4744 21.614Z" fill="#212121"/>
<path d="M49.4873 13.0525H30.8145C30.2988 13.0525 29.8809 13.4704 29.8809 13.9861C29.8809 14.5018 30.2988 14.9197 30.8145 14.9197H49.4874C50.0031 14.9197 50.421 14.5018 50.421 13.9861C50.421 13.4704 50.003 13.0525 49.4873 13.0525Z" fill="#212121"/>
<path d="M34.148 13.2877C33.7359 12.9777 33.1506 13.0605 32.8406 13.4726L30.9733 16.2735C30.8738 16.4246 30.8203 16.6013 30.8193 16.7821C30.8167 17.2978 31.2325 17.7179 31.7481 17.7206C32.0587 17.721 32.3491 17.5671 32.5231 17.3097L34.3904 14.5088C34.6326 14.0995 34.5281 13.5735 34.148 13.2877Z" fill="#212121"/>
<path d="M34.39 13.4632L32.5227 10.6623C32.2368 10.2822 31.7108 10.1777 31.3014 10.4198C30.8575 10.6822 30.7105 11.2548 30.9728 11.6987L32.8402 14.4996C33.0119 14.7604 33.3028 14.9181 33.6151 14.9197C33.802 14.9201 33.9846 14.8643 34.1394 14.7596C34.5666 14.4708 34.6788 13.8904 34.39 13.4632Z" fill="#212121"/>
<path d="M49.329 16.2643L47.4616 13.4633C47.1757 13.0832 46.6498 12.9787 46.2404 13.2209C45.7965 13.4832 45.6494 14.0558 45.9118 14.4997L47.7792 17.3006C47.9509 17.5614 48.2417 17.7191 48.5541 17.7208C48.741 17.7211 48.9236 17.6653 49.0784 17.5606C49.5055 17.2718 49.6177 16.6914 49.329 16.2643Z" fill="#212121"/>
<path d="M49.0864 10.4866C48.6743 10.1767 48.089 10.2595 47.779 10.6715L45.9117 13.4725C45.8122 13.6236 45.7587 13.8003 45.7578 13.9811C45.7552 14.4968 46.171 14.9169 46.6866 14.9196C46.9971 14.92 47.2876 14.766 47.4616 14.5087L49.3289 11.7078C49.571 11.2985 49.4666 10.7725 49.0864 10.4866Z" fill="#212121"/>
<path d="M45.4726 18.0009L36.1362 8.66445C35.7866 8.3651 35.2712 8.3651 34.9216 8.66445C34.5299 8.9998 34.4844 9.5892 34.8197 9.98089L44.1561 19.3173C44.3323 19.492 44.5708 19.5895 44.819 19.5881C45.0589 19.5847 45.2883 19.4892 45.4595 19.3212C45.8277 18.9602 45.8336 18.369 45.4726 18.0009Z" fill="#212121"/>
<path d="M45.473 8.75679C45.1376 8.36509 44.5482 8.31958 44.1565 8.65492L34.8201 17.9913C34.642 18.1679 34.5425 18.4089 34.544 18.6596C34.5469 19.1753 34.9674 19.5908 35.483 19.5879C35.7293 19.5844 35.9642 19.4837 36.1366 19.3078L45.473 9.97137C45.7723 9.6218 45.7723 9.10636 45.473 8.75679Z" fill="#212121"/>
</g>
<defs>
<clipPath id="clip0">
<rect width="56" height="56" fill="white"/>
</clipPath>
</defs>
</svg>
