<svg width="56" height="56" viewBox="0 0 56 56" fill="none" xmlns="http://www.w3.org/2000/svg">
<path d="M44.9812 55.9998H10.9211C8.88104 55.9998 7.22119 54.3399 7.22119 52.2998V31.5638C7.22119 31.1101 7.58905 30.7422 8.04279 30.7422C8.49695 30.7422 8.86481 31.1101 8.86481 31.5638V52.2998C8.86481 53.4337 9.78723 54.3561 10.9211 54.3561H44.9812C46.1147 54.3561 47.0371 53.4337 47.0371 52.2998V17.0721C47.0371 16.6183 47.4054 16.2505 47.8591 16.2505C48.3129 16.2505 48.6812 16.6183 48.6812 17.0721V52.2998C48.6812 54.3399 47.0213 55.9998 44.9812 55.9998Z" fill="black"/>
<path d="M44.981 0.0034451C44.4085 0.0034451 43.8355 0.0034451 43.263 0.0034451C40.9473 0.0034451 38.6312 0.0034451 36.3151 0.0034451C33.2693 0.0034451 30.2239 0.0034451 27.1781 0.0034451C24.5501 0.0034451 21.9221 0.0034451 19.2941 0.0034451C18.4956 0.0034451 17.697 0.0034451 16.8985 0.0034451C16.6909 0.0034451 16.4824 -0.00210911 16.2752 0.0034451C15.6142 0.0209622 15.2951 0.429837 14.8127 0.836575C14.3299 1.24374 13.8471 1.65091 13.3643 2.05807C12.3761 2.89163 11.3879 3.72519 10.3997 4.55874C9.72933 5.12399 9.05898 5.68924 8.38906 6.25448C7.80031 6.75137 7.23293 7.17648 7.22054 7.98697C7.21541 8.32321 7.22054 8.65945 7.22054 8.99527V12.4534V21.7255V27.6416V27.7578C7.22054 28.2119 7.58883 28.5798 8.04256 28.5798C8.4963 28.5798 8.86458 28.2119 8.86458 27.7578V8.44369H15.5531C16.3081 8.44369 16.9229 7.82931 16.9229 7.07437V1.64706H44.9806C46.1145 1.64706 47.0369 2.56948 47.0369 3.7034V13.2925C47.0369 13.7467 47.4047 14.1145 47.8585 14.1145C48.3126 14.1145 48.6805 13.7467 48.6805 13.2925V3.7034C48.6809 1.66287 47.0211 0.0034451 44.981 0.0034451ZM15.2793 6.80008H10.292L15.2793 2.59384V6.80008Z" fill="black"/>
<path d="M15.3836 14.48H21.9247C22.3785 14.48 22.7468 14.1122 22.7468 13.6584C22.7468 13.2043 22.3785 12.8364 21.9247 12.8364H15.3836C14.9299 12.8364 14.562 13.2043 14.562 13.6584C14.562 14.1122 14.9299 14.48 15.3836 14.48Z" fill="black"/>
<path d="M32.3529 12.8364H25.6785C25.2243 12.8364 24.8564 13.2043 24.8564 13.6584C24.8564 14.1122 25.2243 14.48 25.6785 14.48H32.3529C32.8066 14.48 33.1749 14.1122 33.1749 13.6584C33.1749 13.2043 32.8071 12.8364 32.3529 12.8364Z" fill="black"/>
<path d="M36.0526 14.48H40.519C40.9731 14.48 41.341 14.1122 41.341 13.6584C41.341 13.2043 40.9731 12.8364 40.519 12.8364H36.0526C35.5988 12.8364 35.231 13.2043 35.231 13.6584C35.231 14.1122 35.5988 14.48 36.0526 14.48Z" fill="black"/>
<path d="M17.6873 16.4341H15.3836C14.9299 16.4341 14.562 16.8019 14.562 17.2557C14.562 17.7098 14.9299 18.0777 15.3836 18.0777H17.6873C18.1415 18.0777 18.5093 17.7098 18.5093 17.2557C18.5093 16.8019 18.1415 16.4341 17.6873 16.4341Z" fill="black"/>
<path d="M30.3438 16.4341H21.4314C20.9777 16.4341 20.6094 16.8019 20.6094 17.2557C20.6094 17.7098 20.9777 18.0777 21.4314 18.0777H30.3438C30.7975 18.0777 31.1658 17.7098 31.1658 17.2557C31.1658 16.8019 30.7975 16.4341 30.3438 16.4341Z" fill="black"/>
<path d="M40.5196 16.4341H34.1878C33.7341 16.4341 33.3662 16.8019 33.3662 17.2557C33.3662 17.7098 33.7341 18.0777 34.1878 18.0777H40.5196C40.9733 18.0777 41.3412 17.7098 41.3412 17.2557C41.3412 16.8019 40.9733 16.4341 40.5196 16.4341Z" fill="black"/>
<path d="M39.9366 20.5669H15.9668C15.1922 20.5669 14.562 21.1971 14.562 21.9717V46.7357C14.562 47.5103 15.1922 48.1405 15.9668 48.1405H39.9366C40.7112 48.1405 41.3414 47.5103 41.3414 46.7357V21.9717C41.3414 21.1971 40.7112 20.5669 39.9366 20.5669ZM21.4296 41.0927V37.6956H30.277V41.0927H21.4296ZM30.277 42.7363V46.4969H21.4296V42.7363H30.277ZM30.277 27.6143V31.0114H21.4296V27.6143H30.277ZM21.4296 25.9707V22.2105H30.277V25.9707H21.4296ZM21.4296 32.655H30.277V36.052H21.4296V32.655ZM19.7859 36.052H16.2056V32.655H19.7859V36.052ZM31.9206 32.655H39.6978V36.052H31.9206V32.655ZM31.9206 31.0114V27.6143H39.6978V31.0114H31.9206ZM19.7859 31.0114H16.2056V27.6143H19.7859V31.0114ZM16.2056 37.6956H19.7859V41.0927H16.2056V37.6956ZM31.9206 37.6956H39.6978V41.0927H31.9206V37.6956ZM39.6978 25.9707H31.921V22.2105H39.6978V25.9707ZM19.7859 22.2105V25.9707H16.2056V22.2105H19.7859ZM16.2056 42.7363H19.7859V46.4969H16.2056V42.7363ZM31.9206 46.4969V42.7363H39.6978V46.4969H31.9206Z" fill="black"/>
</svg>
