<svg width="56" height="56" viewBox="0 0 56 56" fill="none" xmlns="http://www.w3.org/2000/svg">
<g clip-path="url(#clip0)">
<path d="M12.8171 17.3242H11.0667C10.613 17.3242 10.2451 17.6921 10.2451 18.1458C10.2451 18.5995 10.613 18.967 11.0667 18.967H12.8171C13.2709 18.967 13.6383 18.5995 13.6383 18.1458C13.6383 17.6921 13.2709 17.3242 12.8171 17.3242Z" fill="black"/>
<path d="M45.6573 18.1458C45.6573 17.6921 45.2894 17.3242 44.8357 17.3242H43.0853C42.6315 17.3242 42.2637 17.6921 42.2637 18.1458C42.2637 18.5995 42.6315 18.967 43.0853 18.967H44.8357C45.2894 18.967 45.6573 18.5995 45.6573 18.1458Z" fill="black"/>
<path d="M55.9996 4.7843C55.9996 3.53333 54.9819 2.51562 53.7309 2.51562H2.26868C1.0177 2.51562 0 3.53333 0 4.7843V51.1888C0 52.4398 1.0177 53.4575 2.26868 53.4575H23.907C23.9493 53.4643 23.992 53.4686 24.036 53.4686H31.964C32.008 53.4686 32.0507 53.4643 32.093 53.4575H53.7313C54.9823 53.4575 56 52.4398 56 51.1888L55.9996 4.7843ZM23.2148 51.8147H2.26868C1.92346 51.8147 1.64276 51.534 1.64276 51.1888V47.2231C1.84186 47.2803 2.05164 47.3128 2.26868 47.3128H23.2148V51.8147ZM23.2148 45.67H2.26868C1.92346 45.67 1.64276 45.3893 1.64276 45.0441V41.1677C1.84186 41.225 2.05164 41.2574 2.26868 41.2574H23.2148V45.67ZM23.2148 39.6147H2.26868C1.92346 39.6147 1.64276 39.334 1.64276 38.9888V33.9404H23.2148V39.6147ZM23.2148 23.3883C21.7917 22.0886 20.8966 20.2207 20.8966 18.146C20.8966 16.0709 21.7913 14.2021 23.2148 12.9024V23.3883ZM23.2148 7.23456H18.5814C18.1281 7.23456 17.7602 7.60242 17.7602 8.05615C17.7602 8.50989 18.1281 8.87732 18.5814 8.87732H23.2148V10.8298C20.8312 12.3936 19.2538 15.0886 19.2538 18.146C19.2538 21.2034 20.8312 23.8984 23.2148 25.4626V27.4142H11.1208C11.1084 27.2592 11.0887 27.1019 11.0627 26.9447C10.7192 24.882 9.01233 23.3063 6.91156 23.1132C6.86499 23.1089 6.81842 23.105 6.77271 23.1021V13.1895C6.81885 13.1865 6.86542 13.1827 6.91156 13.1784C9.01233 12.9853 10.7192 11.41 11.0627 9.34686C11.0887 9.18964 11.1084 9.03241 11.1208 8.87732H14.8032C15.257 8.87732 15.6248 8.50989 15.6248 8.05615C15.6248 7.60242 15.257 7.23456 14.8032 7.23456H10.911C10.1428 7.23456 9.5199 7.83014 9.49255 8.59021C9.48657 8.74786 9.46991 8.9115 9.44214 9.07727C9.22125 10.4039 8.11896 11.4177 6.76074 11.5429C6.67487 11.5506 6.58942 11.5557 6.50696 11.5583C5.73492 11.5809 5.12994 12.2043 5.12994 12.9772V23.3148C5.12994 24.0877 5.73492 24.7106 6.50653 24.7333C6.58813 24.7358 6.67358 24.741 6.76117 24.7491C8.11896 24.8738 9.22125 25.8877 9.44214 27.2147C9.46991 27.3801 9.48657 27.5441 9.49255 27.7009C9.5199 28.4614 10.1428 29.057 10.911 29.057H23.2148V32.1336H1.64276V4.7843C1.64276 4.43909 1.92346 4.15839 2.26868 4.15839H23.2148V7.23456ZM32.7852 12.902C34.2087 14.2017 35.1034 16.0709 35.1034 18.146C35.1034 20.2207 34.2083 22.0886 32.7852 23.3879V12.902ZM32.7852 25.4613C35.1683 23.8976 36.7462 21.2034 36.7462 18.146C36.7462 15.0886 35.1683 12.3948 32.7852 10.8307V8.87732H44.7938C44.8062 9.03241 44.8258 9.18964 44.8523 9.34772C45.1958 11.4109 46.9035 12.9861 49.0056 13.1788C49.0513 13.1827 49.0966 13.1865 49.1423 13.1895V23.1021C49.0966 23.105 49.0508 23.1089 49.0051 23.1132C46.9035 23.3054 45.1958 24.8807 44.8523 26.9438C44.8258 27.1015 44.8062 27.2592 44.7938 27.4142H32.7852V25.4613ZM32.7852 29.057H45.004C45.7717 29.057 46.3947 28.4614 46.4224 27.7009C46.428 27.5441 46.4446 27.3801 46.4724 27.2139C46.6937 25.8868 47.7964 24.8734 49.1542 24.7487C49.2414 24.741 49.3264 24.7358 49.4072 24.7333C50.1801 24.7106 50.7846 24.0877 50.7846 23.3144V12.9772C50.7846 12.2039 50.1801 11.5809 49.408 11.5583C49.3264 11.5562 49.2414 11.5506 49.1547 11.5429C47.7964 11.4182 46.6937 10.4047 46.4724 9.07727C46.4446 8.91107 46.428 8.74744 46.4224 8.59064C46.3947 7.83014 45.7717 7.23456 45.004 7.23456H32.7852V4.15839H53.7309C54.0761 4.15839 54.3572 4.43909 54.3572 4.7843V32.1332H32.7852V29.057ZM54.3572 51.1888C54.3572 51.534 54.0765 51.8147 53.7313 51.8147H32.7852V47.3132H53.7313C53.9484 47.3132 54.1581 47.2803 54.3572 47.2231V51.1888ZM54.3572 45.0441C54.3572 45.3893 54.0765 45.67 53.7313 45.67H32.7852V41.2574H53.7313C53.9484 41.2574 54.1581 41.225 54.3572 41.1677V45.0441ZM54.3572 38.9888C54.3572 39.334 54.0765 39.6147 53.7313 39.6147H32.7852V38.5333C32.7852 38.0796 32.4177 37.7117 31.964 37.7117C31.5103 37.7117 31.1424 38.0796 31.1424 38.5333V51.8147H24.8576V4.15839H31.1424V34.709C31.1424 35.1628 31.5103 35.5306 31.964 35.5306C32.4173 35.5306 32.7852 35.1628 32.7852 34.709V33.94H54.3572V38.9888Z" fill="black"/>
</g>
<defs>
<clipPath id="clip0">
<rect width="56" height="56" fill="white"/>
</clipPath>
</defs>
</svg>
