<svg width="24" height="24" viewBox="0 0 24 24" fill="none" xmlns="http://www.w3.org/2000/svg">
<g opacity="0.4" clip-path="url(#clip0)">
<path d="M23.7166 0.284209C23.3379 -0.0944005 22.7241 -0.0944005 22.3455 0.284209L0.284445 22.3452C-0.0941641 22.7238 -0.0941641 23.3377 0.284445 23.7163C0.473727 23.9056 0.721883 24.0002 0.969992 24.0002C1.2181 24.0002 1.46621 23.9056 1.65554 23.7162L23.7166 1.65521C24.0951 1.27665 24.0951 0.662818 23.7166 0.284209Z" fill="white"/>
<path d="M23.716 22.3452L1.65496 0.284209C1.27639 -0.0944006 0.66252 -0.0944006 0.283957 0.284209C-0.0946523 0.662771 -0.0946523 1.2766 0.283957 1.65521L22.345 23.7163C22.5343 23.9056 22.7825 24.0002 23.0306 24.0002C23.2787 24.0002 23.5268 23.9056 23.7161 23.7163C24.0946 23.3377 24.0946 22.7238 23.716 22.3452Z" fill="white"/>
</g>
<defs>
<clipPath id="clip0">
<rect width="24" height="24" fill="white"/>
</clipPath>
</defs>
</svg>
