<svg width="384" height="384" viewBox="0 0 384 384" fill="none" xmlns="http://www.w3.org/2000/svg">
<path d="M344.003 160.68V152.002C344.003 138.768 333.238 128.002 320.003 128.002H240V87.9988C240 83.5806 236.419 79.9986 232 79.9986H207.999V56.0023C207.999 51.5841 204.417 48.0021 199.999 48.0021H91.3193L77.6588 34.3423C74.5358 31.2186 69.4702 31.2186 66.3457 34.3423L20.6873 79.9986H8.00025C3.582 79.9993 0 83.5806 0 87.9988V312C0 316.417 3.582 320 8.00025 320H40.8045C42.0082 325.909 44.52 331.347 48.021 336H31.9995C27.5813 336 24 339.583 24 344C24 348.418 27.5812 352 32.0003 352H79.998C80.0182 352 80.037 351.997 80.0573 351.997C99.3472 351.97 115.48 338.218 119.193 320.001H232H264.81C266.014 325.909 268.526 331.348 272.027 336.001H256.005C251.587 336.001 248.005 339.583 248.005 344.001C248.005 348.419 251.587 352.001 256.005 352.001H304.003C304.023 352.001 304.042 351.998 304.063 351.998C323.353 351.97 339.486 338.218 343.198 320.002H376C380.418 320.002 384 316.42 384 312.001V240.001V207.999C384 184.259 366.672 164.502 344.003 160.68ZM191.999 64.0026V79.9993H123.317L107.32 64.0026H191.999ZM72.0023 51.3126L82.3432 61.6528C82.347 61.6566 82.3515 61.6611 82.3552 61.6648L100.69 79.9993H43.3155L72.0023 51.3126ZM79.9995 335.998C66.765 335.998 55.9987 325.233 55.9987 312C55.9987 298.765 66.765 287.998 79.9995 287.998C93.2325 287.998 103.998 298.765 103.998 312C103.997 325.233 93.2318 335.998 79.9995 335.998ZM223.999 136.002V272.001H169.592C165.174 272.001 161.592 275.583 161.592 280.001C161.592 284.419 165.173 288.001 169.592 288.001H223.999V304.001H119.193C115.477 285.764 99.3158 272 79.9995 272C60.6833 272 44.52 285.765 40.8037 304.001H15.9998V176.001H47.9985C52.416 176.001 55.9987 172.42 55.9987 168.001C55.9987 163.582 52.4168 160 47.9985 160H15.9998V144.001H111.997C116.416 144.001 119.998 140.42 119.998 136.001C119.998 131.583 116.417 128.001 111.997 128.001H15.9998V95.9976H23.9948C23.9993 95.9976 24.0037 95.9976 24.0075 95.9976H223.999V136.002ZM264.81 304H240V288.001H272.026C268.524 292.654 266.013 298.092 264.81 304ZM328.003 312.026C327.988 325.248 317.228 335.998 304.004 335.998C290.77 335.998 280.004 325.233 280.004 312C280.004 298.786 290.737 288.034 303.943 288H304.003C304.01 288 304.017 287.999 304.024 287.999C317.24 288.01 327.988 298.759 328.003 311.974C328.003 311.983 328.002 311.991 328.002 312C328.002 312.009 328.003 312.017 328.003 312.026ZM368 304H343.198C339.482 285.763 323.32 271.999 304.004 271.999C303.983 271.999 303.963 272.001 303.943 272.001H239.999V144.002H320.003C324.415 144.002 328.004 147.591 328.004 152.002V160.002H272.004C267.586 160.002 264.004 163.583 264.004 168.002V240.001C264.004 244.419 267.586 248.001 272.004 248.001H368V304ZM296.005 176.001V232H280.004V176.001H296.005ZM368 232H312.005V176.001H336.004C353.647 176.001 368 190.354 368 207.998V232Z" fill="#F6F6F6"/>
<path d="M138.298 288.001H143.291C147.709 288.001 151.291 284.419 151.291 280C151.291 275.582 147.709 272 143.291 272H138.298C133.879 272 130.297 275.582 130.297 280C130.297 284.419 133.88 288.001 138.298 288.001Z" fill="#F6F6F6"/>
<path d="M138.298 144.002H143.291C147.709 144.002 151.291 140.421 151.291 136.002C151.291 131.583 147.709 128.001 143.291 128.001H138.298C133.879 128.001 130.297 131.583 130.297 136.002C130.298 140.42 133.88 144.002 138.298 144.002Z" fill="#F6F6F6"/>
</svg>
