<svg width="56" height="56" viewBox="0 0 56 56" fill="none" xmlns="http://www.w3.org/2000/svg">
<g clip-path="url(#clip0)">
<path d="M40.6448 21.6785C40.6448 9.90415 29.0539 0.587617 28.5609 0.196433C28.2323 -0.0637686 27.7679 -0.0637686 27.4389 0.196433C26.9458 0.587617 15.355 9.90415 15.355 21.6785C15.355 32.4817 25.1099 41.2095 27.0967 42.8783V52.3876C27.0967 52.8863 27.5011 53.2908 27.9999 53.2908C28.4987 53.2908 28.9031 52.8863 28.9031 52.3876V42.8783C30.8903 41.2095 40.6448 32.4817 40.6448 21.6785ZM28.9031 40.447V30.2254L33.9973 25.9859C34.381 25.6666 34.433 25.0968 34.1137 24.7131C33.7944 24.3295 33.2246 24.2774 32.8414 24.5967L28.9031 27.8753V24.8044L33.9973 20.5645C34.381 20.2456 34.433 19.6758 34.1137 19.2921C33.7944 18.9084 33.2246 18.8564 32.8414 19.1757L28.9031 22.456V18.482L33.9973 14.242C34.381 13.9232 34.433 13.3534 34.1137 12.9697C33.7944 12.586 33.2246 12.534 32.8414 12.8532L28.9031 16.1336V9.03358C28.9031 8.53479 28.4987 8.13037 27.9999 8.13037C27.5011 8.13037 27.0967 8.53479 27.0967 9.03358V16.1336L23.1588 12.855C22.7751 12.5357 22.2053 12.5878 21.886 12.9714C21.5667 13.3551 21.6192 13.9249 22.0029 14.2442L27.0967 18.4837V22.4578L23.1588 19.1792C22.7751 18.8599 22.2053 18.912 21.886 19.2957C21.5667 19.6793 21.6192 20.2491 22.0029 20.5684L27.0967 24.8062V27.877L23.1588 24.5985C22.7751 24.2792 22.2053 24.3312 21.886 24.7149C21.5667 25.0986 21.6192 25.6684 22.0029 25.9877L27.0967 30.2254V40.447C24.0259 37.5658 17.1614 30.1813 17.1614 21.6785C17.1614 12.2001 25.7048 4.09372 27.9999 2.08797C30.2949 4.09372 38.8384 12.2001 38.8384 21.6785C38.8384 30.1813 31.9739 37.5658 28.9031 40.447Z" fill="white"/>
<path d="M21.6776 47.8716H20.7743V41.2391C20.7774 40.0408 20.3011 38.8911 19.4513 38.0465L11.8481 30.4394C10.791 29.3867 9.08116 29.3867 8.02403 30.4394L7.22623 31.2398V21.6785C7.22535 20.6748 6.80726 19.7169 6.07208 19.0337C5.33734 18.3501 4.35166 18.0031 3.35055 18.0745C1.4255 18.2619 -0.0329513 19.8968 0.000566197 21.8311V34.7331C0.000125177 35.8569 0.418653 36.94 1.175 37.7709L9.03264 46.4144V47.8716H8.12944C7.63064 47.8716 7.22623 48.276 7.22623 48.7748V55.0972C7.22623 55.596 7.63064 56.0004 8.12944 56.0004H21.6776C22.1763 56.0004 22.5808 55.596 22.5808 55.0972V48.7748C22.5808 48.276 22.1763 47.8716 21.6776 47.8716ZM2.51173 36.555C2.05792 36.0571 1.80654 35.407 1.80698 34.7331V21.8311C1.78273 20.8476 2.50423 20.004 3.47977 19.8765C4.0037 19.839 4.51837 20.0309 4.88971 20.4022C5.23017 20.7396 5.42114 21.1991 5.41981 21.6785V32.6714C5.41761 33.3907 5.70339 34.0809 6.21365 34.588L11.1037 39.4781C11.4583 39.8203 12.0214 39.8155 12.3698 39.4671C12.7182 39.1186 12.7231 38.555 12.3809 38.2009L8.23528 34.0549C8.06637 33.8868 7.97155 33.6584 7.97155 33.4202C7.97155 33.1816 8.06637 32.9532 8.23528 32.7852L9.30122 31.7201C9.65272 31.3726 10.219 31.3726 10.5709 31.7201L18.1741 39.3242C18.6808 39.8331 18.9662 40.5211 18.9679 41.2391V47.8716H10.8391V45.7154L2.51173 36.555ZM20.7743 54.194H9.03264V49.678H20.7743V54.194Z" fill="white"/>
<path d="M52.6491 18.0745C51.6485 18.0031 50.6624 18.3501 49.9276 19.0337C49.1929 19.7169 48.7748 20.6748 48.7735 21.6785V31.2398L47.9761 30.442C46.919 29.3893 45.2092 29.3893 44.152 30.442L36.5489 38.0465C35.699 38.8911 35.2227 40.0408 35.2254 41.2391V47.8716H34.3222C33.8234 47.8716 33.4189 48.276 33.4189 48.7748V55.0972C33.4189 55.596 33.8234 56.0004 34.3222 56.0004H47.8703C48.3691 56.0004 48.7735 55.596 48.7735 55.0972V48.7748C48.7735 48.276 48.3691 47.8716 47.8703 47.8716H46.9671V46.4144L54.8251 37.7709C55.5815 36.94 56 35.8569 55.9991 34.7331V21.8311C56.0326 19.8968 54.5746 18.2619 52.6491 18.0745ZM46.9671 54.194H35.2254V49.678H46.9671V54.194ZM54.1927 34.7331C54.1936 35.407 53.9422 36.0571 53.4884 36.555L45.1606 45.7154V47.8716H37.0318V41.2391C37.0335 40.5211 37.3189 39.8322 37.8256 39.3233L45.4319 31.7201C45.7834 31.3726 46.3496 31.3726 46.7016 31.7201L47.7675 32.786C48.1155 33.1358 48.1155 33.7007 47.7675 34.0504L43.6197 38.1982C43.3851 38.4249 43.2907 38.7605 43.3736 39.0763C43.4561 39.3921 43.7031 39.639 44.0188 39.7215C44.3346 39.804 44.6702 39.7101 44.8969 39.475L49.7869 34.5854C50.2959 34.0782 50.5812 33.3894 50.5799 32.6714V21.6785C50.579 21.1991 50.77 20.7396 51.11 20.4022C51.4818 20.0309 51.996 19.8395 52.5199 19.8765C53.4955 20.004 54.2174 20.8476 54.1927 21.8311V34.7331Z" fill="white"/>
<path d="M27.3587 54.4558C27.1933 54.6287 27.0998 54.8576 27.0967 55.0971C27.0984 55.1575 27.1042 55.2179 27.1148 55.2775C27.1249 55.3343 27.143 55.389 27.169 55.4402C27.1889 55.4975 27.2162 55.5522 27.2502 55.6029C27.2837 55.6501 27.3198 55.6951 27.3587 55.7383C27.715 56.0876 28.2853 56.0876 28.6412 55.7383L28.7497 55.6029C28.7836 55.5522 28.811 55.4975 28.8308 55.4402C28.8573 55.389 28.8754 55.3343 28.8842 55.2775C28.8956 55.2179 28.9018 55.1575 28.9031 55.0971C28.9053 54.7301 28.6853 54.398 28.3466 54.2574C28.0074 54.1167 27.6171 54.1952 27.3587 54.4558Z" fill="white"/>
<path d="M10.8388 52.3874H14.4517C14.9505 52.3874 15.3549 51.983 15.3549 51.4842C15.3549 50.9854 14.9505 50.581 14.4517 50.581H10.8388C10.34 50.581 9.93555 50.9854 9.93555 51.4842C9.93555 51.983 10.34 52.3874 10.8388 52.3874Z" fill="white"/>
<path d="M16.8181 52.3153C16.9266 52.3616 17.0435 52.3859 17.1613 52.3876C17.5282 52.3894 17.8603 52.1693 18.001 51.8306C18.1417 51.4919 18.0632 51.1012 17.8025 50.8432C17.5427 50.5865 17.1546 50.5119 16.8181 50.6531C16.7074 50.6967 16.6064 50.7611 16.52 50.8432C16.3546 51.016 16.2611 51.2449 16.258 51.4844C16.2497 51.8518 16.4741 52.1852 16.8181 52.3153Z" fill="white"/>
<path d="M37.0131 23.304C37.0042 23.2476 36.9862 23.1924 36.9597 23.1413C36.9399 23.0839 36.9125 23.0293 36.8786 22.979L36.7701 22.8436C36.408 22.5093 35.8496 22.5093 35.4876 22.8436C35.4487 22.8864 35.4126 22.9314 35.3791 22.979C35.3451 23.0293 35.3178 23.0839 35.2979 23.1413C35.2719 23.1924 35.2538 23.2476 35.2437 23.304C35.2335 23.364 35.2278 23.424 35.2256 23.4848C35.2287 23.7239 35.3222 23.9532 35.4876 24.1261C35.6596 24.2928 35.8893 24.3863 36.1288 24.3881C36.3692 24.3903 36.6003 24.2959 36.7705 24.1261C36.9403 23.9563 37.0347 23.7248 37.032 23.4848C37.0303 23.424 37.0241 23.3636 37.0131 23.304Z" fill="white"/>
</g>
<defs>
<clipPath id="clip0">
<rect width="56" height="56" fill="white"/>
</clipPath>
</defs>
</svg>
