<svg width="8" height="16" viewBox="0 0 8 16" fill="none" xmlns="http://www.w3.org/2000/svg">
<path d="M0.255436 8.5216H1.99143V15.7419C1.99143 15.8845 2.10576 16 2.24687 16H5.19031C5.33141 16 5.44574 15.8845 5.44574 15.7419V8.55561H7.44141C7.57117 8.55561 7.68035 8.45724 7.69516 8.32702L7.99826 5.66885C8.00659 5.59572 7.98365 5.52248 7.93522 5.46761C7.88674 5.4127 7.81736 5.38126 7.74456 5.38126H5.44584V3.71499C5.44584 3.2127 5.71354 2.95799 6.24158 2.95799C6.31683 2.95799 7.74456 2.95799 7.74456 2.95799C7.88567 2.95799 8 2.84243 8 2.69992V0.259974C8 0.117419 7.88567 0.00190968 7.74456 0.00190968H5.67323C5.65862 0.0011871 5.62618 0 5.57836 0C5.21897 0 3.96973 0.0712774 2.98293 0.988439C1.88956 2.0048 2.04155 3.22173 2.07787 3.43272V5.38121H0.255436C0.114333 5.38121 0 5.49672 0 5.63928V8.26348C0 8.40604 0.114333 8.5216 0.255436 8.5216Z" fill="white"/>
</svg>
