<svg width="56" height="56" viewBox="0 0 56 56" fill="none" xmlns="http://www.w3.org/2000/svg">
<path d="M26.6351 14.3425C26.6351 13.89 26.2685 13.5234 25.816 13.5234H18.1901C17.7377 13.5234 17.3711 13.89 17.3711 14.3425C17.3711 14.7945 17.7377 15.1615 18.1901 15.1615H25.816C26.2685 15.1615 26.6351 14.7945 26.6351 14.3425Z" fill="black"/>
<path d="M33.4733 16.2168H25.8474C25.3949 16.2168 25.0283 16.5838 25.0283 17.0358C25.0283 17.4883 25.3949 17.8549 25.8474 17.8549H33.4733C33.9257 17.8549 34.2923 17.4883 34.2923 17.0358C34.2923 16.5838 33.9257 16.2168 33.4733 16.2168Z" fill="black"/>
<path d="M29.6599 15.1615H33.473C33.9255 15.1615 34.2921 14.7945 34.2921 14.3425C34.2921 13.89 33.9255 13.5234 33.473 13.5234H29.6599C29.2074 13.5234 28.8408 13.89 28.8408 14.3425C28.8408 14.7945 29.2074 15.1615 29.6599 15.1615Z" fill="black"/>
<path d="M51.4712 20.36H44.563C44.1106 20.36 43.744 20.7266 43.744 21.179C43.744 21.6315 44.1106 21.998 44.563 21.998H51.4712C53.0652 21.998 54.3619 23.2947 54.3619 24.8888V25.2088H38.629V21.998H40.7405C41.1929 21.998 41.5595 21.631 41.5595 21.179C41.5595 20.7266 41.1929 20.36 40.7405 20.36H38.629V13.3882C38.629 10.8909 36.5975 8.85938 34.1002 8.85938H4.52881C2.03156 8.85938 0 10.8909 0 13.3882V31.0099C0 33.5072 2.03156 35.5388 4.52881 35.5388H17.371V42.5106C17.371 45.0078 19.4025 47.0394 21.8998 47.0394H51.4712C53.9684 47.0394 56 45.0078 56 42.5106V24.8888C56 22.3915 53.9684 20.36 51.4712 20.36ZM54.3619 42.5106C54.3619 44.1046 53.0652 45.4013 51.4712 45.4013H21.8998C20.3057 45.4013 19.009 44.1046 19.009 42.5106V35.5388H22.9589C23.4114 35.5388 23.778 35.1722 23.778 34.7197C23.778 34.2677 23.4114 33.9007 22.9589 33.9007H4.52881C2.93475 33.9007 1.63806 32.604 1.63806 31.0099V13.3882C1.63806 11.7941 2.93518 10.4974 4.52881 10.4974H34.1002C35.6943 10.4974 36.991 11.7941 36.991 13.3882V31.0099C36.991 32.604 35.6943 33.9007 34.1002 33.9007H26.6896C26.2372 33.9007 25.8706 34.2673 25.8706 34.7197C25.8706 35.1722 26.2372 35.5388 26.6896 35.5388H34.1002C36.1313 35.5388 37.854 34.1951 38.4265 32.3502H54.3619V42.5106ZM54.3619 30.7122H38.629V26.8469H54.3619V30.7122Z" fill="black"/>
<path d="M6.65063 24.4946H12.7115C13.4639 24.4946 14.0766 23.8823 14.0766 23.1295V18.2234C14.0766 17.4706 13.4639 16.8584 12.7115 16.8584H6.65063C5.89783 16.8584 5.28516 17.4706 5.28516 18.2234V23.1295C5.28558 23.8823 5.89783 24.4946 6.65063 24.4946ZM6.92365 22.5549H8.12463C8.57709 22.5549 8.94366 22.1879 8.94366 21.7358C8.94366 21.2834 8.57709 20.9168 8.12463 20.9168H6.92365V20.4366H8.12463C8.57709 20.4366 8.94366 20.0696 8.94366 19.6176C8.94366 19.1651 8.57709 18.7985 8.12463 18.7985H6.92365V18.4965H12.4385V19.8577H11.5524C11.4875 19.4706 11.1512 19.1754 10.7458 19.1754C10.2933 19.1754 9.92676 19.5419 9.92676 19.9944V21.3594C9.92676 21.8119 10.2933 22.1785 10.7458 22.1785C11.1512 22.1785 11.4875 21.8828 11.5524 21.4957H12.4385V22.8569H6.92365V22.5549Z" fill="black"/>
<path d="M21.3873 26.416H13.7614C13.309 26.416 12.9424 26.783 12.9424 27.235C12.9424 27.6875 13.309 28.0541 13.7614 28.0541H21.3873C21.8398 28.0541 22.2064 27.6875 22.2064 27.235C22.2064 26.783 21.8398 26.416 21.3873 26.416Z" fill="black"/>
<path d="M9.91785 26.416H6.10468C5.65222 26.416 5.28564 26.783 5.28564 27.235C5.28564 27.6875 5.65222 28.0541 6.10468 28.0541H9.91742C10.3699 28.0541 10.7365 27.6875 10.7365 27.235C10.7365 26.783 10.3699 26.416 9.91785 26.416Z" fill="black"/>
<path d="M7.66113 29.5049H6.10468C5.65222 29.5049 5.28564 29.8719 5.28564 30.3239C5.28564 30.7764 5.65222 31.1429 6.10468 31.1429H7.66113C8.11359 31.1429 8.48016 30.7764 8.48016 30.3239C8.48016 29.8719 8.11359 29.5049 7.66113 29.5049Z" fill="black"/>
<path d="M12.9033 29.5049H11.3464C10.8944 29.5049 10.5278 29.8719 10.5278 30.3239C10.5278 30.7764 10.8944 31.1429 11.3464 31.1429H12.9033C13.3553 31.1429 13.7224 30.7764 13.7224 30.3239C13.7224 29.8719 13.3553 29.5049 12.9033 29.5049Z" fill="black"/>
<path d="M18.2539 29.5049H16.6974C16.245 29.5049 15.8784 29.8719 15.8784 30.3239C15.8784 30.7764 16.245 31.1429 16.6974 31.1429H18.2539C18.7064 31.1429 19.0729 30.7764 19.0729 30.3239C19.0729 29.8719 18.7064 29.5049 18.2539 29.5049Z" fill="black"/>
<path d="M47.0689 34.9302C45.967 34.9302 44.9587 35.3356 44.1829 36.0038C43.4074 35.3361 42.4 34.9302 41.2985 34.9302C38.8568 34.9302 36.8701 36.9164 36.8701 39.3582C36.8701 41.7999 38.8568 43.7861 41.2985 43.7861C42.4 43.7861 43.4074 43.3802 44.1829 42.712C44.9587 43.3802 45.967 43.7861 47.0689 43.7861C49.5106 43.7861 51.4969 41.7999 51.4969 39.3582C51.4969 36.9164 49.5106 34.9302 47.0689 34.9302ZM41.2985 42.1481C39.76 42.1481 38.5082 40.8962 38.5082 39.3582C38.5082 37.8196 39.76 36.5682 41.2985 36.5682C42.0129 36.5682 42.6644 36.8395 43.1583 37.2834C42.8285 37.9025 42.6409 38.6088 42.6409 39.3582C42.6409 40.1075 42.8289 40.8138 43.1588 41.4333C42.6644 41.8768 42.0129 42.1481 41.2985 42.1481ZM47.0689 42.1481C45.5304 42.1481 44.279 40.8962 44.279 39.3582C44.279 37.8196 45.5304 36.5682 47.0689 36.5682C48.6074 36.5682 49.8588 37.8196 49.8588 39.3582C49.8588 40.8962 48.6074 42.1481 47.0689 42.1481Z" fill="black"/>
<path d="M32.5356 38.7426C32.1767 39.0233 31.8054 39.3143 31.4286 39.4582C31.018 39.6146 30.9817 39.5809 30.6369 39.254C30.3827 39.0135 30.0349 38.6841 29.4987 38.5046C28.6776 38.2291 28.0187 38.6695 27.583 38.9609C27.4655 39.04 27.295 39.1536 27.201 39.1912C27.1185 39.1143 26.9805 38.8524 26.8964 38.6926C26.7092 38.338 26.4969 37.9364 26.1367 37.6544C25.8458 37.4267 25.2254 37.111 24.3431 37.5544C23.2114 38.1235 22.7247 39.3322 22.3338 40.3033C22.2894 40.414 22.2462 40.5217 22.2031 40.6251C22.0288 41.0425 22.2261 41.5223 22.6436 41.6962C22.7465 41.7393 22.8533 41.7598 22.9584 41.7598C23.2793 41.7598 23.5835 41.5701 23.7147 41.2557C23.7604 41.1463 23.8065 41.0322 23.8535 40.9152C24.1564 40.1623 24.4999 39.3091 25.0793 39.0178C25.1152 38.9998 25.1434 38.9883 25.1643 38.9806C25.2485 39.0801 25.3702 39.3108 25.4476 39.457C25.642 39.8252 25.862 40.2431 26.2474 40.5242C27.1766 41.2031 28.0333 40.6306 28.4938 40.3226C28.6323 40.2298 28.8899 40.0577 28.9771 40.0577H28.9783C29.1621 40.1192 29.3001 40.2444 29.5103 40.4435C29.9324 40.8434 30.639 41.5124 32.0126 40.9882C32.6206 40.7562 33.1119 40.3717 33.5452 40.0325C33.9015 39.7535 33.9639 39.2386 33.6853 38.8823C33.4063 38.5264 32.8915 38.4636 32.5356 38.7426Z" fill="black"/>
</svg>
