<svg width="56" height="56" viewBox="0 0 56 56" fill="none" xmlns="http://www.w3.org/2000/svg">
<g clip-path="url(#clip0)">
<path d="M31.4869 22.4727C31.0115 21.9868 30.5773 21.4622 30.1891 20.9042C30.0491 20.7174 29.9278 20.5308 29.8157 20.344C28.6344 18.4339 28.0103 16.2318 28.0138 13.9859C28.0113 13.3163 28.0676 12.6477 28.1819 11.9879C28.4354 10.4473 28.9839 8.97003 29.7971 7.63718C29.9372 7.4224 30.0772 7.19833 30.2266 6.98366C30.5059 6.58847 30.437 6.04546 30.0678 5.73254C29.2293 5.03318 28.172 4.65002 27.0801 4.64948H6.53984C3.96167 4.64948 1.87158 6.73945 1.87158 9.31774V47.5972C1.87158 50.1754 3.96167 52.2655 6.53984 52.2655H27.08C29.6582 52.2655 31.7483 50.1754 31.7483 47.5972V23.1169C31.7473 22.8766 31.6537 22.6458 31.4869 22.4727ZM29.8809 47.5971C29.8809 49.144 28.6269 50.398 27.08 50.398H6.53984C4.99298 50.398 3.73891 49.144 3.73891 47.5971V9.31774C3.73891 7.77088 4.99287 6.5168 6.53984 6.5168H27.08C27.4649 6.51374 27.8463 6.59 28.2004 6.74088C27.2693 8.25677 26.6356 9.93613 26.333 11.6892C26.2046 12.448 26.1421 13.2164 26.1463 13.986C26.1438 16.5854 26.8682 19.1337 28.2377 21.3432C28.3777 21.5672 28.5178 21.7913 28.6671 21.9874C29.0351 22.5199 29.4407 23.0254 29.8808 23.4999V47.5971H29.8809Z" fill="white"/>
<path d="M11.2078 50.3982H6.53957C6.02391 50.3982 5.60596 50.8162 5.60596 51.3318V53.1992C5.60596 54.746 6.85992 56.0001 8.40689 56.0001H9.3405C10.8874 56.0001 12.1414 54.7461 12.1414 53.1992V51.3318C12.1414 50.8163 11.7235 50.3982 11.2078 50.3982ZM10.2741 53.1992C10.2741 53.7148 9.85605 54.1328 9.3405 54.1328H8.40689C7.89124 54.1328 7.47328 53.7148 7.47328 53.1992V52.2656H10.2742V53.1992H10.2741Z" fill="white"/>
<path d="M27.0799 50.3982H22.4116C21.896 50.3982 21.478 50.8162 21.478 51.3318V53.1992C21.478 54.746 22.7321 56.0001 24.279 56.0001H25.2126C26.7594 56.0001 28.0135 54.7461 28.0135 53.1992V51.3318C28.0136 50.8163 27.5956 50.3982 27.0799 50.3982ZM26.1463 53.1992C26.1463 53.7148 25.7283 54.1328 25.2127 54.1328H24.2791C23.7634 54.1328 23.3455 53.7148 23.3455 53.1992V52.2656H26.1464V53.1992H26.1463Z" fill="white"/>
<path d="M29.4327 20.5216H2.80519C2.28953 20.5216 1.87158 20.9395 1.87158 21.4552C1.87158 21.9708 2.28953 22.3888 2.80519 22.3888H29.4328C29.9484 22.3888 30.3664 21.9708 30.3664 21.4552C30.3664 20.9395 29.9483 20.5216 29.4327 20.5216Z" fill="white"/>
<path d="M6.53957 24.2561C6.02391 24.2561 5.60596 24.674 5.60596 25.1897V30.7915C5.60596 31.3072 6.02391 31.7251 6.53957 31.7251C7.05522 31.7251 7.47318 31.3072 7.47318 30.7915V25.1897C7.47318 24.674 7.05522 24.2561 6.53957 24.2561Z" fill="white"/>
<path d="M6.53957 11.185C6.02391 11.185 5.60596 11.603 5.60596 12.1186V17.7205C5.60596 18.2362 6.02391 18.6541 6.53957 18.6541C7.05522 18.6541 7.47318 18.2362 7.47318 17.7205V12.1186C7.47318 11.6031 7.05522 11.185 6.53957 11.185Z" fill="white"/>
<path d="M48.2186 2.57818C41.9073 -1.89304 33.1664 -0.401429 28.6952 5.90987C28.5271 6.15265 28.3683 6.39533 28.2003 6.65682C27.2592 8.19821 26.6251 9.907 26.333 11.6892C26.2045 12.448 26.142 13.2164 26.1462 13.986C26.1409 16.5845 26.8621 19.1327 28.2282 21.3431C28.3682 21.5672 28.5083 21.7913 28.6576 21.9873C29.1018 22.625 29.5985 23.2247 30.1421 23.7799C30.5649 24.2152 31.0173 24.6208 31.4959 24.9936C33.9584 26.9436 37.0097 28.0002 40.1508 27.9906C43.292 28.0009 46.3435 26.9442 48.8057 24.9936C49.8537 24.1654 50.7778 23.1915 51.55 22.1016C56.0215 15.7903 54.5297 7.04939 48.2186 2.57818ZM49.718 21.4206C45.5929 26.7043 37.9656 27.6435 32.6819 23.5183C32.2592 23.1986 31.8598 22.8492 31.4868 22.4727C31.0114 21.9868 30.5773 21.4622 30.1891 20.9042C30.049 20.7174 29.9277 20.5307 29.8156 20.344C28.6343 18.4339 28.0102 16.2318 28.0137 13.9859C28.0148 13.3191 28.0742 12.6537 28.1911 11.9972C28.4446 10.4566 28.9931 8.9793 29.8063 7.64645C29.9464 7.43167 30.0864 7.2076 30.2358 6.99293C32.5086 3.76879 36.2064 1.85015 40.1511 1.84851C46.8544 1.84851 52.2885 7.28265 52.2885 13.9859C52.2808 16.6808 51.3764 19.2965 49.718 21.4206Z" fill="white"/>
<path d="M40.1509 3.71603C39.6352 3.71603 39.2173 4.13399 39.2173 4.64964V23.3226C39.2173 23.8382 39.6352 24.2562 40.1509 24.2562C40.6665 24.2562 41.0845 23.8381 41.0845 23.3226V4.64964C41.0845 4.13399 40.6665 3.71603 40.1509 3.71603Z" fill="white"/>
<path d="M40.6736 6.67549L37.8727 4.80817C37.4633 4.56615 36.9373 4.67053 36.6514 5.05062C36.3415 5.46267 36.4243 6.04802 36.8363 6.35798L39.6373 8.22531C39.7891 8.32739 39.9678 8.38264 40.1507 8.38406C40.4624 8.38472 40.7539 8.2299 40.9278 7.97114C41.2154 7.54324 41.1015 6.96314 40.6736 6.67549Z" fill="white"/>
<path d="M43.708 5.13695C43.4456 4.69307 42.8731 4.54602 42.4292 4.80839L39.6283 6.67571C39.3695 6.84957 39.2147 7.14104 39.2153 7.45275C39.2165 7.96841 39.6355 8.38548 40.151 8.38428C40.3341 8.38286 40.5126 8.32761 40.6645 8.22553L43.4654 6.3582C43.8456 6.07231 43.95 5.54637 43.708 5.13695Z" fill="white"/>
<path d="M40.9358 19.9314C40.6258 19.5193 40.0405 19.4365 39.6284 19.7465L36.8275 21.6138C36.5687 21.7877 36.4139 22.0791 36.4146 22.3909C36.4158 22.9065 36.8347 23.3236 37.3502 23.3224C37.5333 23.321 37.7118 23.2657 37.8637 23.1636L40.6646 21.2963C40.6944 21.2787 40.7231 21.2595 40.7508 21.2388C41.163 20.9288 41.2457 20.3435 40.9358 19.9314Z" fill="white"/>
<path d="M43.4744 21.6139L40.6735 19.7466C40.264 19.5046 39.7381 19.609 39.4522 19.9891C39.1422 20.4011 39.2251 20.9865 39.6371 21.2964L42.438 23.1638C42.5899 23.2658 42.7686 23.3211 42.9515 23.3225C43.2632 23.3232 43.5547 23.1684 43.7285 22.9096C44.0162 22.4816 43.9023 21.9015 43.4744 21.6139Z" fill="white"/>
<path d="M49.4873 13.0525H30.8145C30.2988 13.0525 29.8809 13.4704 29.8809 13.9861C29.8809 14.5017 30.2988 14.9197 30.8145 14.9197H49.4874C50.0031 14.9197 50.421 14.5017 50.421 13.9861C50.421 13.4704 50.003 13.0525 49.4873 13.0525Z" fill="white"/>
<path d="M34.148 13.2877C33.7359 12.9777 33.1506 13.0605 32.8406 13.4726L30.9733 16.2735C30.8738 16.4246 30.8203 16.6013 30.8193 16.7821C30.8167 17.2978 31.2325 17.7179 31.7481 17.7206C32.0587 17.721 32.3491 17.5671 32.5231 17.3097L34.3904 14.5088C34.6326 14.0995 34.5281 13.5735 34.148 13.2877Z" fill="white"/>
<path d="M34.39 13.4632L32.5227 10.6622C32.2368 10.2821 31.7108 10.1776 31.3014 10.4198C30.8575 10.6821 30.7105 11.2547 30.9728 11.6986L32.8402 14.4995C33.0119 14.7603 33.3028 14.918 33.6151 14.9196C33.802 14.92 33.9846 14.8642 34.1394 14.7595C34.5666 14.4707 34.6788 13.8903 34.39 13.4632Z" fill="white"/>
<path d="M49.329 16.2642L47.4616 13.4633C47.1757 13.0832 46.6498 12.9787 46.2404 13.2208C45.7965 13.4832 45.6494 14.0557 45.9118 14.4996L47.7792 17.3006C47.9509 17.5614 48.2417 17.719 48.5541 17.7207C48.741 17.721 48.9236 17.6652 49.0784 17.5605C49.5055 17.2718 49.6177 16.6913 49.329 16.2642Z" fill="white"/>
<path d="M49.0864 10.4866C48.6743 10.1766 48.089 10.2595 47.779 10.6715L45.9117 13.4724C45.8122 13.6235 45.7587 13.8002 45.7578 13.9811C45.7552 14.4968 46.171 14.9169 46.6866 14.9195C46.9971 14.92 47.2876 14.766 47.4616 14.5087L49.3289 11.7077C49.571 11.2984 49.4666 10.7725 49.0864 10.4866Z" fill="white"/>
<path d="M45.4726 18.0008L36.1362 8.66436C35.7866 8.36501 35.2712 8.36501 34.9216 8.66436C34.5299 8.99971 34.4844 9.58911 34.8197 9.9808L44.1561 19.3172C44.3323 19.4919 44.5708 19.5894 44.819 19.588C45.0589 19.5846 45.2883 19.4891 45.4595 19.3212C45.8277 18.9601 45.8336 18.3689 45.4726 18.0008Z" fill="white"/>
<path d="M45.473 8.75682C45.1376 8.36512 44.5482 8.31961 44.1565 8.65496L34.8201 17.9914C34.642 18.168 34.5425 18.4089 34.544 18.6597C34.5469 19.1753 34.9674 19.5909 35.483 19.5879C35.7293 19.5844 35.9642 19.4837 36.1366 19.3078L45.473 9.9714C45.7723 9.62183 45.7723 9.10639 45.473 8.75682Z" fill="white"/>
</g>
<defs>
<clipPath id="clip0">
<rect width="56" height="56" fill="white"/>
</clipPath>
</defs>
</svg>
