<svg width="16" height="16" viewBox="0 0 16 16" fill="none" xmlns="http://www.w3.org/2000/svg">
<path d="M11.3864 0H4.61805C2.06985 0 0 2.06927 0 4.61676V11.3788C0 13.9307 2.06985 16 4.61805 16H11.3819C13.9346 16 16 13.9307 16 11.3832V4.61676C16.0045 2.06927 13.9346 0 11.3864 0ZM14.5292 11.4994C14.5292 13.1933 13.1567 14.5654 11.4624 14.5654H4.54205C2.84772 14.5654 1.47527 13.1933 1.47527 11.4994V4.58101C1.47527 2.88715 2.84772 1.51508 4.54205 1.51508H11.4669C13.1612 1.51508 14.5337 2.88715 14.5337 4.58101V11.4994H14.5292Z" fill="white"/>
<path d="M8.00223 3.88867C5.70886 3.88867 3.84912 5.74789 3.84912 8.04063C3.84912 10.3334 5.70886 12.1926 8.00223 12.1926C10.2956 12.1926 12.1553 10.3334 12.1553 8.04063C12.1553 5.74789 10.2956 3.88867 8.00223 3.88867ZM8.00223 10.7311C6.51355 10.7311 5.31098 9.52443 5.31098 8.04063C5.31098 6.55236 6.51802 5.35012 8.00223 5.35012C9.49092 5.35012 10.6935 6.55683 10.6935 8.04063C10.6935 9.5289 9.49092 10.7311 8.00223 10.7311Z" fill="white"/>
<path d="M12.2942 4.69733C12.8275 4.69733 13.2599 4.26512 13.2599 3.73196C13.2599 3.19881 12.8275 2.7666 12.2942 2.7666C11.7609 2.7666 11.3286 3.19881 11.3286 3.73196C11.3286 4.26512 11.7609 4.69733 12.2942 4.69733Z" fill="white"/>
</svg>
