<svg width="56" height="56" viewBox="0 0 56 56" fill="none" xmlns="http://www.w3.org/2000/svg">
<g clip-path="url(#clip0)">
<path d="M14.338 43.8082C14.056 40.7316 12.6405 38.4804 11.2041 36.1717C8.36262 31.664 5.35401 26.89 12.1443 14.6623C12.3901 14.1964 12.2126 13.6193 11.7473 13.3722C11.2861 13.1153 10.7039 13.281 10.4471 13.7422C10.447 13.7425 10.4468 13.7427 10.4467 13.743C3.10278 26.9527 6.42478 32.2125 9.55874 37.1903C10.8907 39.2796 12.1704 41.3689 12.4315 43.9805C12.4792 44.507 12.9445 44.8952 13.471 44.8476C13.9975 44.7999 14.3857 44.3347 14.338 43.8082Z" fill="#212121"/>
<path d="M37.4142 14.6988C37.11 15.5354 36.6802 16.321 36.1397 17.0284C35.1874 18.3115 33.8036 19.2074 32.2432 19.5512C30.5822 19.9116 28.5869 19.687 26.3095 18.658C23.0137 17.1694 19.1746 14.0459 14.9541 8.67113C17.3569 8.42563 21.6243 7.65259 24.8052 5.23421C27.4952 3.18669 29.924 2.43454 31.935 2.62258C32.7991 2.69126 33.6374 2.94982 34.3899 3.37995C35.1326 3.81035 35.781 4.38595 36.2964 5.07229C37.1226 6.19739 37.6704 7.50229 37.8948 8.88006C38.5761 9.00829 39.2481 9.18275 39.9057 9.40238C39.7211 7.41023 38.999 5.50556 37.8164 3.89183C37.1425 2.99852 36.295 2.25055 35.3249 1.69284C34.3274 1.12272 33.2161 0.780331 32.0708 0.689969C29.6159 0.486261 26.7326 1.3481 23.6248 3.71424C19.7282 6.67584 13.8625 6.84821 13.1417 6.84821C12.612 6.81347 12.1545 7.21462 12.1197 7.74426C12.1049 7.97108 12.1708 8.19581 12.306 8.37862C17.1949 14.9129 21.6713 18.6424 25.5156 20.3921C28.2004 21.5987 30.5978 21.8547 32.6401 21.4368C34.6519 20.9949 36.4352 19.8389 37.6597 18.1827C38.3026 17.3321 38.815 16.3902 39.1797 15.3883L39.0282 15.3151C38.5082 15.0652 37.9684 14.859 37.4142 14.6988Z" fill="#212121"/>
<path d="M51.277 22.9671C43.4943 9.99775 37.2786 10.238 31.4024 10.4678C28.9057 10.5671 26.4769 10.6611 24.0898 9.559C23.5915 9.38467 23.0462 9.6474 22.872 10.1457C22.722 10.5748 22.8949 11.0502 23.2855 11.2827C26.0904 12.5728 28.7438 12.4736 31.4703 12.3639C36.7981 12.1759 42.4392 11.9565 49.6317 23.9491C49.9029 24.4034 50.491 24.552 50.9453 24.2808C51.3996 24.0097 51.5482 23.4216 51.277 22.9671Z" fill="#212121"/>
<path d="M21.102 37.3206C20.8095 34.3956 19.8275 32.1913 18.4225 30.64C17.0387 29.1201 15.1521 28.1518 13.1104 27.9135C12.0539 27.7813 10.9835 27.8077 9.93466 27.9918C9.93466 28.0493 9.93466 28.1015 9.93466 28.159C9.97985 28.7405 10.0743 29.3171 10.2167 29.8827C11.0907 29.7248 11.9836 29.7001 12.8649 29.8095C14.4486 29.9862 15.9156 30.728 16.9965 31.8988C18.1352 33.1577 18.9396 34.9962 19.1903 37.4825C19.5507 41.0761 18.7672 45.9599 16.2339 52.3271C14.8184 50.3631 12.0135 47.0516 8.33112 45.5055C5.19716 44.1944 3.34289 42.476 2.48628 40.653C2.11033 39.8792 1.90884 39.0323 1.89605 38.172C1.90036 37.3115 2.07808 36.4605 2.41838 35.67C2.97922 34.3914 3.8348 33.2638 4.9151 32.3794C4.69533 31.7199 4.52074 31.0464 4.39277 30.3632C2.75867 31.5186 1.46957 33.0967 0.663356 34.9283C0.226559 35.9539 0.000914073 37.0572 0 38.172C0.00470094 39.3216 0.263253 40.456 0.757374 41.494C1.80203 43.7243 4.00103 45.7927 7.59464 47.3023C12.3896 49.308 15.5758 54.7977 15.6071 54.8551C15.868 55.3141 16.4515 55.4746 16.9105 55.2138C17.0946 55.1091 17.2389 54.9463 17.3204 54.7507C20.5327 47.2553 21.5251 41.5149 21.102 37.3206Z" fill="#212121"/>
<path d="M48.297 35.5422C47.9926 35.1094 47.3952 35.0054 46.9625 35.3097C44.4396 37.0909 43.2017 39.4466 41.9272 41.865C39.4409 46.5659 36.8136 51.575 22.8309 51.7892C22.303 51.7978 21.8821 52.2328 21.8908 52.7607C21.8994 53.2886 22.3343 53.7095 22.8623 53.7009C37.9837 53.4502 40.8826 47.9553 43.6248 42.732C44.7844 40.533 45.9178 38.381 48.0646 36.8767C48.4973 36.5725 48.6014 35.9749 48.297 35.5422Z" fill="#212121"/>
<path d="M55.5151 27.3388C55.3371 27.2372 55.1313 27.1952 54.9278 27.2188L54.954 27.2449C46.8527 28.206 41.3839 30.2222 37.9365 32.698C35.5495 34.4165 34.1288 36.3543 33.4916 38.3548C32.867 40.3116 32.9708 42.4283 33.7841 44.3146C34.1994 45.296 34.7592 46.2097 35.4451 47.0255L35.5809 46.9315C36.0622 46.6011 36.5148 46.2308 36.9337 45.8241C36.362 45.1493 35.8954 44.3922 35.5495 43.5781C34.9151 42.1066 34.8354 40.4551 35.3249 38.9294C35.8472 37.3102 37.0329 35.7014 39.0648 34.2285C41.995 32.1391 46.6124 30.358 53.3922 29.3708C52.405 31.5803 50.9373 35.6387 51.4439 39.6189C51.8722 42.9774 51.3133 45.4533 50.159 47.1143C49.6681 47.8271 49.0261 48.4227 48.2786 48.8588C47.533 49.287 46.7086 49.5606 45.855 49.6632C44.4662 49.8155 43.0611 49.6365 41.7548 49.1409C41.2962 49.6634 40.8023 50.1538 40.2766 50.6086C42.0931 51.4444 44.1024 51.7711 46.0901 51.5541C47.1941 51.419 48.2598 51.0639 49.224 50.5094C50.2171 49.9299 51.0697 49.1379 51.7208 48.1903C53.1258 46.1636 53.8101 43.2386 53.3295 39.3682C52.6714 34.1971 55.8628 28.6657 55.8733 28.65C56.1364 28.189 55.976 27.6021 55.5151 27.3388Z" fill="#212121"/>
</g>
<defs>
<clipPath id="clip0">
<rect width="56" height="56" fill="white"/>
</clipPath>
</defs>
</svg>
