<svg width="177" height="48" viewBox="0 0 177 48" fill="none" xmlns="http://www.w3.org/2000/svg">
<path d="M42.7305 8.34784V39.6522C46.3994 35.4417 48.586 29.9863 48.586 24.0183C48.586 18.0504 46.3624 12.5584 42.7305 8.34784Z" fill="#95CA49"/>
<path d="M31.6495 40.7872C29.2406 41.9588 26.6093 42.5446 23.7557 42.5446C18.6784 42.5446 14.3423 40.714 10.7475 37.0892C7.15264 33.4645 5.33668 29.0343 5.33668 23.7986C5.33668 18.7094 7.15264 14.3158 10.7845 10.6911C14.4165 7.06636 18.7896 5.2357 23.8668 5.2357C26.8317 5.2357 29.4629 5.85812 31.8719 7.10297C34.2437 8.34783 36.3562 10.2151 38.1721 12.6682V4.24714C34.2437 1.57437 29.4629 0 24.2745 0C10.8587 0 0 10.7277 0 23.9817C0 37.2357 10.8587 47.9634 24.2745 47.9634C29.4259 47.9634 34.2067 46.389 38.1351 43.6796V35.5515C36.2079 37.8947 34.0584 39.6156 31.6495 40.7872Z" fill="#95CA49"/>
<path d="M24.2746 9.66589C21.7174 9.66589 19.3455 10.2883 17.159 11.5332C14.9724 12.778 13.2677 14.5355 11.9705 16.8055C10.6734 19.0755 10.0063 21.4554 10.0063 23.9817C10.0063 26.4714 10.6364 28.8512 11.9335 31.1579C13.2306 33.4279 14.9724 35.222 17.159 36.4668C19.3455 37.7483 21.6803 38.3707 24.2004 38.3707C26.7205 38.3707 29.1295 37.7483 31.3901 36.4668C33.6508 35.222 35.3927 33.5011 36.6156 31.3409C37.8386 29.1808 38.4316 26.7643 38.4316 24.0915C38.4316 19.9908 37.0604 16.5492 34.3179 13.8032C31.6125 11.0572 28.24 9.66589 24.2746 9.66589Z" fill="#95CA49"/>
<path d="M74.417 17.5377H78.6789V34.27H74.417V32.5126C73.6017 33.2815 72.7493 33.8673 71.934 34.1968C71.0816 34.5263 70.1921 34.7094 69.2286 34.7094C67.042 34.7094 65.1519 33.8673 63.5583 32.1831C61.9647 30.4988 61.1494 28.4119 61.1494 25.9222C61.1494 23.3226 61.9277 21.2357 63.4472 19.5881C65.0037 17.9405 66.8567 17.0984 69.0803 17.0984C70.0809 17.0984 71.0445 17.2815 71.934 17.6842C72.8234 18.0503 73.6387 18.6361 74.417 19.405V17.5377V17.5377ZM69.9327 20.9794C68.6356 20.9794 67.5238 21.4554 66.6714 22.3707C65.819 23.286 65.3743 24.4577 65.3743 25.8856C65.3743 27.3135 65.819 28.5217 66.7085 29.4371C67.5979 30.3524 68.6727 30.8284 69.9698 30.8284C71.3039 30.8284 72.4158 30.3524 73.3052 29.4371C74.1946 28.5217 74.6394 27.3135 74.6394 25.849C74.6394 24.3844 74.1946 23.2128 73.3052 22.2975C72.4158 21.4188 71.3039 20.9794 69.9327 20.9794Z" fill="black"/>
<path d="M83.0522 17.5377H87.3141V19.4416C88.0553 18.6361 88.8336 18.0503 89.7231 17.6842C90.6125 17.2815 91.5761 17.0984 92.6138 17.0984C93.6885 17.0984 94.615 17.3547 95.4674 17.8673C96.3198 18.3799 96.9869 19.1121 97.5057 20.1007C98.1728 19.1121 99.0252 18.3799 99.9887 17.8673C100.952 17.3547 102.027 17.0984 103.213 17.0984C104.399 17.0984 105.474 17.3913 106.4 17.9405C107.327 18.4897 107.957 19.222 108.364 20.1007C108.772 20.9794 108.957 22.4439 108.957 24.4577V34.27H104.695V25.7757C104.695 23.8718 104.473 22.5904 103.991 21.9313C103.509 21.2723 102.805 20.9062 101.842 20.9062C101.101 20.9062 100.471 21.1258 99.8776 21.5286C99.2846 21.9313 98.8769 22.5172 98.5805 23.2128C98.284 23.9085 98.1728 25.0801 98.1728 26.6911V34.2334H93.9109V26.1419C93.9109 24.6407 93.7997 23.5789 93.5773 22.8833C93.355 22.2242 93.0214 21.7117 92.5767 21.3821C92.132 21.0526 91.5761 20.9062 90.946 20.9062C90.2419 20.9062 89.6119 21.1258 89.0189 21.5286C88.4259 21.9313 88.0183 22.5172 87.7218 23.286C87.4253 24.0183 87.2771 25.2265 87.2771 26.8375V34.27H83.0151V17.5377H83.0522Z" fill="black"/>
<path d="M130.119 27.0938H116.48C116.666 28.2654 117.222 29.2174 118.074 29.913C118.926 30.6087 120.038 30.9748 121.335 30.9748C122.929 30.9748 124.3 30.4256 125.412 29.3272L129.007 30.9748C128.117 32.2197 127.043 33.135 125.782 33.7574C124.522 34.3798 123.077 34.6728 121.335 34.6728C118.667 34.6728 116.517 33.8306 114.85 32.1831C113.182 30.5355 112.33 28.4485 112.33 25.9588C112.33 23.3959 113.145 21.2723 114.813 19.5881C116.48 17.9039 118.556 17.0618 121.076 17.0618C123.744 17.0618 125.894 17.9039 127.598 19.5881C129.266 21.2723 130.119 23.5057 130.119 26.2517V27.0938ZM125.894 23.7986C125.597 22.8833 125.078 22.1144 124.226 21.5286C123.374 20.9428 122.447 20.6499 121.335 20.6499C120.149 20.6499 119.112 20.9794 118.222 21.6384C117.666 22.0412 117.147 22.7734 116.666 23.7986H125.894Z" fill="black"/>
<path d="M133.231 11.0572H137.493V34.2334H133.231V11.0572Z" fill="black"/>
<path d="M149.427 17.0984C151.021 17.0984 152.54 17.5011 153.949 18.27C155.357 19.0755 156.469 20.1373 157.247 21.492C158.025 22.8467 158.433 24.3112 158.433 25.8856C158.433 27.4599 158.025 28.9245 157.247 30.3158C156.469 31.7071 155.357 32.7689 153.986 33.5377C152.615 34.3066 151.095 34.7094 149.464 34.7094C147.018 34.7094 144.98 33.8673 143.238 32.1464C141.533 30.4256 140.644 28.3753 140.644 25.9222C140.644 23.3226 141.608 21.1258 143.572 19.405C145.24 17.8307 147.204 17.0984 149.427 17.0984ZM149.501 21.0526C148.167 21.0526 147.093 21.492 146.203 22.4073C145.314 23.3226 144.869 24.4577 144.869 25.8856C144.869 27.3501 145.314 28.5217 146.166 29.4371C147.018 30.3524 148.13 30.7917 149.464 30.7917C150.799 30.7917 151.91 30.3524 152.8 29.4371C153.689 28.5217 154.134 27.3501 154.134 25.9222C154.134 24.4943 153.689 23.3226 152.837 22.4073C151.947 21.492 150.836 21.0526 149.501 21.0526Z" fill="black"/>
<path d="M161.99 17.5377H166.252V19.2586C167.216 18.4531 168.105 17.9039 168.883 17.5744C169.662 17.2448 170.477 17.0984 171.292 17.0984C172.96 17.0984 174.405 17.6842 175.554 18.8192C176.555 19.8078 177.037 21.2723 177.037 23.1762V34.2334H172.849V26.9107C172.849 24.897 172.775 23.5789 172.589 22.9199C172.404 22.2609 172.108 21.7483 171.626 21.4188C171.144 21.0892 170.625 20.9062 169.958 20.9062C169.106 20.9062 168.365 21.1991 167.735 21.7483C167.105 22.3341 166.697 23.103 166.437 24.0915C166.326 24.6041 166.252 25.7391 166.252 27.4966V34.1968H161.99V17.5377Z" fill="black"/>
</svg>
