<svg width="56" height="56" viewBox="0 0 56 56" fill="none" xmlns="http://www.w3.org/2000/svg">
<path d="M53.2 4.66675H2.8C1.25371 4.66675 0 5.92046 0 7.46675V44.8001C0 46.3464 1.25371 47.6001 2.8 47.6001H5.6V50.4001C5.6 50.9155 6.0179 51.3334 6.53333 51.3334H12.1333C12.6488 51.3334 13.0667 50.9155 13.0667 50.4001V47.6001H42.9333V50.4001C42.9333 50.9155 43.3512 51.3334 43.8667 51.3334H49.4667C49.9821 51.3334 50.4 50.9155 50.4 50.4001V47.6001H53.2C54.7463 47.6001 56 46.3464 56 44.8001V7.46675C56 5.92046 54.7463 4.66675 53.2 4.66675ZM11.2 49.4667H7.46667V47.6001H11.2V49.4667ZM48.5333 49.4667H44.8V47.6001H48.5333V49.4667ZM54.1333 44.8001C54.1333 45.3155 53.7154 45.7334 53.2 45.7334H2.8C2.28457 45.7334 1.86667 45.3155 1.86667 44.8001V7.46675C1.86667 6.95132 2.28457 6.53341 2.8 6.53341H53.2C53.7154 6.53341 54.1333 6.95132 54.1333 7.46675V44.8001Z" fill="#212121"/>
<path d="M42.0001 10.2666H8.4001C6.85381 10.2666 5.6001 11.5203 5.6001 13.0666V39.1999C5.6001 40.7462 6.85381 41.9999 8.4001 41.9999H42.0001C43.5464 41.9999 44.8001 40.7462 44.8001 39.1999V13.0666C44.8001 11.5203 43.5464 10.2666 42.0001 10.2666ZM42.9334 39.1999C42.9334 39.7154 42.5155 40.1333 42.0001 40.1333H8.4001C7.88467 40.1333 7.46676 39.7154 7.46676 39.1999V13.0666C7.46676 12.5512 7.88467 12.1333 8.4001 12.1333H42.0001C42.5155 12.1333 42.9334 12.5512 42.9334 13.0666V39.1999Z" fill="#212121"/>
<path d="M49.4665 15.8667C47.9202 15.8667 46.6665 17.1204 46.6665 18.6667C46.6665 20.213 47.9202 21.4667 49.4665 21.4667C51.0128 21.4667 52.2665 20.213 52.2665 18.6667C52.2665 17.1204 51.0128 15.8667 49.4665 15.8667ZM49.4665 19.6C48.9511 19.6 48.5332 19.1821 48.5332 18.6667C48.5332 18.1513 48.9511 17.7334 49.4665 17.7334C49.9819 17.7334 50.3998 18.1513 50.3998 18.6667C50.3998 19.1821 49.9819 19.6 49.4665 19.6Z" fill="#212121"/>
<path d="M49.4665 23.3333C47.9202 23.3333 46.6665 24.587 46.6665 26.1333C46.6665 27.6795 47.9202 28.9333 49.4665 28.9333C51.0128 28.9333 52.2665 27.6795 52.2665 26.1333C52.2665 24.587 51.0128 23.3333 49.4665 23.3333ZM49.4665 27.0666C48.9511 27.0666 48.5332 26.6487 48.5332 26.1333C48.5332 25.6178 48.9511 25.1999 49.4665 25.1999C49.9819 25.1999 50.3998 25.6178 50.3998 26.1333C50.3998 26.6487 49.9819 27.0666 49.4665 27.0666Z" fill="#212121"/>
<path d="M49.4665 30.8C47.9202 30.8 46.6665 32.0538 46.6665 33.6C46.6665 35.1463 47.9202 36.4 49.4665 36.4C51.0128 36.4 52.2665 35.1463 52.2665 33.6C52.2665 32.0538 51.0128 30.8 49.4665 30.8ZM49.4665 34.5334C48.9511 34.5334 48.5332 34.1155 48.5332 33.6C48.5332 33.0846 48.9511 32.6667 49.4665 32.6667C49.9819 32.6667 50.3998 33.0846 50.3998 33.6C50.3998 34.1155 49.9819 34.5334 49.4665 34.5334Z" fill="#212121"/>
<path d="M46.6665 12.1333H52.2665V14H46.6665V12.1333Z" fill="#212121"/>
<path d="M40.1332 14H36.3999V15.8667H39.1999V18.6667H41.0666V14.9333C41.0666 14.4179 40.6487 14 40.1332 14Z" fill="#212121"/>
<path d="M39.2002 20.5334H41.0669V22.4001H39.2002V20.5334Z" fill="#212121"/>
<path d="M11.2002 30.8H13.4232L15.0315 34.017C15.1896 34.3337 15.5132 34.5334 15.8669 34.5334H34.5335C34.889 34.5352 35.2148 34.3351 35.3734 34.017L36.9771 30.8H39.2002V28.9333H11.2002V30.8ZM33.9566 32.6667H16.4438L15.5105 30.8H34.8899L33.9566 32.6667Z" fill="#212121"/>
<path d="M23.7068 27.0667H25.5735C25.5666 26.6939 25.7038 26.3326 25.9572 26.0587C26.9375 24.8305 26.9375 23.0873 25.9572 21.8587C25.4445 21.2822 25.4445 20.4131 25.9572 19.8361C26.4421 19.2437 26.7028 18.499 26.6936 17.7334H24.827C24.8338 18.1076 24.6962 18.4694 24.4423 18.7442C23.4634 19.9729 23.4634 21.7156 24.4423 22.9442C24.9546 23.5202 24.9546 24.388 24.4423 24.964C23.9579 25.5569 23.6972 26.3011 23.7068 27.0667Z" fill="#212121"/>
<path d="M29.3064 27.0667H31.1731C31.1662 26.6939 31.3034 26.3326 31.5568 26.0587C32.5371 24.8305 32.5371 23.0873 31.5568 21.8587C31.0441 21.2822 31.0441 20.4131 31.5568 19.8361C32.0417 19.2437 32.3024 18.499 32.2933 17.7334H30.4266C30.4334 18.1076 30.2958 18.4694 30.042 18.7442C29.063 19.9729 29.063 21.7156 30.042 22.9442C30.5542 23.5202 30.5542 24.388 30.042 24.964C29.5575 25.5569 29.2968 26.3011 29.3064 27.0667Z" fill="#212121"/>
<path d="M18.1067 27.0667H19.9734C19.9665 26.6939 20.1037 26.3326 20.3571 26.0587C21.3374 24.8305 21.3374 23.0873 20.3571 21.8587C19.8444 21.2822 19.8444 20.4131 20.3571 19.8361C20.842 19.2437 21.1027 18.499 21.0935 17.7334H19.2269C19.2337 18.1076 19.0961 18.4694 18.8422 18.7442C17.8633 19.9729 17.8633 21.7156 18.8422 22.9442C19.3545 23.5202 19.3545 24.388 18.8422 24.964C18.3578 25.5569 18.0971 26.3011 18.1067 27.0667Z" fill="#212121"/>
</svg>
