<svg width="384" height="384" viewBox="0 0 384 384" fill="none" xmlns="http://www.w3.org/2000/svg">
<path d="M37.5 109.5C39.4717 109.5 41.4082 108.697 42.8027 107.303C44.1973 105.908 45 103.972 45 102C45 100.028 44.1973 98.0918 42.8027 96.6973C41.4082 95.3027 39.4717 94.5 37.5 94.5C35.5283 94.5 33.5918 95.3027 32.1973 96.6973C30.8027 98.0918 30 100.028 30 102C30 103.972 30.8027 105.908 32.1973 107.303C33.5918 108.697 35.5283 109.5 37.5 109.5Z" fill="white"/>
<path d="M136.465 345C132.322 345 128.965 348.357 128.965 352.5C128.965 356.643 132.322 360 136.465 360H136.535C140.678 360 144 356.643 144 352.5C144 348.357 140.607 345 136.465 345Z" fill="white"/>
<path d="M191.725 269.25C191.725 265.107 188.367 261.75 184.225 261.75H138.313C134.171 261.75 130.813 265.107 130.813 269.25C130.813 273.393 134.171 276.75 138.313 276.75H184.225C188.367 276.75 191.725 273.393 191.725 269.25Z" fill="white"/>
<path d="M261.205 261.75H215.294C211.151 261.75 207.794 265.107 207.794 269.25C207.794 273.393 211.151 276.75 215.294 276.75H261.205C265.348 276.75 268.705 273.393 268.705 269.25C268.705 265.107 265.348 261.75 261.205 261.75Z" fill="white"/>
<path d="M339.249 261.75H293.338C289.195 261.75 285.838 265.107 285.838 269.25C285.838 273.393 289.195 276.75 293.338 276.75H339.249C343.392 276.75 346.749 273.393 346.749 269.25C346.749 265.107 343.392 261.75 339.249 261.75Z" fill="white"/>
<path d="M158.147 234.627C165.855 234.627 172.98 232.084 178.731 227.795C184.479 232.084 191.604 234.627 199.315 234.627C218.338 234.627 233.815 219.149 233.815 200.127C233.815 181.104 218.338 165.627 199.315 165.627C191.604 165.627 184.479 168.17 178.731 172.459C172.98 168.17 165.855 165.627 158.147 165.627C139.122 165.627 123.647 181.104 123.647 200.127C123.647 219.149 139.122 234.627 158.147 234.627ZM218.815 200.127C218.815 210.879 210.067 219.627 199.315 219.627C195.346 219.627 191.648 218.432 188.566 216.387C191.168 211.538 192.647 206.004 192.647 200.127C192.647 194.25 191.165 188.716 188.566 183.867C191.648 181.822 195.346 180.627 199.315 180.627C210.067 180.627 218.815 189.375 218.815 200.127ZM158.147 180.627C162.117 180.627 165.812 181.822 168.896 183.867C166.295 188.716 164.815 194.25 164.815 200.127C164.815 206.004 166.295 211.538 168.896 216.387C165.812 218.432 162.117 219.627 158.147 219.627C147.393 219.627 138.647 210.879 138.647 200.127C138.647 189.372 147.393 180.627 158.147 180.627Z" fill="white"/>
<path d="M192.809 321H192.709C188.569 321 185.209 324.357 185.209 328.5C185.209 332.643 188.569 336 192.709 336H192.809C196.951 336 200.309 332.643 200.309 328.5C200.309 324.357 196.951 321 192.809 321Z" fill="white"/>
<path d="M361.5 135.721H273V30C273 13.459 259.541 0 243 0H30C13.459 0 0 13.459 0 30V354C0 370.541 13.459 384 30 384H243C259.541 384 273 370.541 273 354V336H361.5C373.907 336 384 325.904 384 313.5V158.221C384 145.813 373.907 135.721 361.5 135.721ZM369 313.5C369 317.634 365.637 321 361.5 321H222.914C218.771 321 215.414 324.357 215.414 328.5C215.414 332.64 218.771 336 222.914 336H258V354C258 362.271 251.271 369 243 369H30C21.7295 369 15 362.271 15 354V30C15 21.7295 21.7295 15 30 15H243C251.271 15 258 21.7295 258 30V135.721H243V48C243 43.8574 239.643 40.5 235.5 40.5H37.5C33.3574 40.5 30 43.8574 30 48V72C30 76.1426 33.3574 79.5 37.5 79.5C41.6426 79.5 45 76.1426 45 72V55.5H228V135.721H115.828C103.421 135.721 93.3281 145.813 93.3281 158.221V313.5C93.3281 316.128 93.7852 318.653 94.6172 321H45V132.094C45 127.951 41.6426 124.594 37.5 124.594C33.3574 124.594 30 127.951 30 132.094V328.5C30 332.643 33.3574 336 37.5 336H115.828H115.843H162.809C166.951 336 170.309 332.64 170.309 328.5C170.309 324.357 166.951 321 162.809 321H115.828C111.691 321 108.328 317.634 108.328 313.5V158.221C108.328 154.084 111.691 150.721 115.828 150.721H361.5C365.637 150.721 369 154.084 369 158.221V313.5Z" fill="white"/>
</svg>
