<svg width="56" height="56" viewBox="0 0 56 56" fill="none" xmlns="http://www.w3.org/2000/svg">
<mask id="path-1-inside-1" fill="white">
<path fill-rule="evenodd" clip-rule="evenodd" d="M16.852 44.2062C18.2612 44.2062 19.6704 44.2186 21.079 44.2031C22.6438 44.1859 23.0364 43.8091 23.0484 42.2669C23.067 39.9275 23.0867 37.587 23.0415 35.2484C23.0161 33.9378 23.5148 33.2893 24.8756 33.3097C27.116 33.3429 29.3572 33.3395 31.5979 33.3105C32.8857 33.2939 33.3799 33.8942 33.3556 35.1545C33.3106 37.4933 33.3301 39.8335 33.3481 42.1732C33.3604 43.783 33.7779 44.1865 35.3985 44.2034C36.7404 44.2174 38.0824 44.2062 39.4243 44.2062C39.4641 44.3641 39.5039 44.522 39.5436 44.6799C39.2595 45.0318 39.0043 45.4117 38.6873 45.7307C35.6944 48.7429 32.6937 51.7476 29.6886 54.7481C28.3538 56.0805 27.819 56.0814 26.4977 54.7612C23.5271 51.7937 20.5597 48.8234 17.6008 45.8444C17.2532 45.4943 16.9685 45.0811 16.6546 44.6971C16.7204 44.5335 16.7862 44.3698 16.852 44.2062Z"/>
<path fill-rule="evenodd" clip-rule="evenodd" d="M39.6668 11.6452C38.3255 11.6452 36.9839 11.6307 35.6426 11.6489C33.9885 11.6714 33.5432 12.1142 33.5321 13.7602C33.5175 15.9433 33.5014 18.1267 33.5375 20.309C33.5587 21.5888 32.9725 22.1123 31.7433 22.0981C29.5814 22.0727 27.4192 22.1026 25.257 22.0872C23.748 22.0767 23.3891 21.698 23.3781 20.1117C23.3631 17.9762 23.384 15.8407 23.3701 13.7052C23.36 12.1119 22.9342 11.6726 21.3689 11.6498C19.9183 11.6287 18.4672 11.6455 16.6546 11.6455C17.0655 11.018 17.2459 10.6148 17.5351 10.3206C20.6799 7.12046 23.8527 3.948 26.9925 0.742754C27.8865 -0.17018 28.6758 -0.297341 29.6257 0.674897C32.7946 3.91778 35.999 7.12503 39.182 10.3539C39.4302 10.606 39.616 10.9207 39.8309 11.2064C39.7761 11.3527 39.7216 11.499 39.6668 11.6452Z"/>
<path fill-rule="evenodd" clip-rule="evenodd" d="M11.3187 16.6547V39.831C10.6967 39.3581 10.3137 39.1293 10.0064 38.8238C6.98038 35.8134 3.96341 32.7943 0.951798 29.7693C-0.318252 28.4935 -0.31628 28.0133 0.951798 26.74C3.9313 23.7497 6.91447 20.7627 9.90693 17.7853C10.2475 17.4469 10.6584 17.1791 11.3187 16.6547Z"/>
<path fill-rule="evenodd" clip-rule="evenodd" d="M44.4123 39.292V16.6547C44.9039 16.9609 45.2774 17.1131 45.543 17.3721C48.7259 20.4759 51.8873 23.6013 55.0679 26.7076C55.9092 27.5296 55.9724 28.3347 55.1279 29.1667C51.8928 32.3534 48.6546 35.5372 45.4073 38.7116C45.2182 38.8963 44.9381 38.9906 44.4123 39.292Z"/>
</mask>
<path d="M16.852 44.2062V42.7062H15.8386L15.4604 43.6465L16.852 44.2062ZM21.079 44.2031L21.0955 45.703L21.0955 45.703L21.079 44.2031ZM23.0484 42.2669L21.5484 42.2549L21.5484 42.2552L23.0484 42.2669ZM23.0415 35.2484L24.5412 35.2194L24.5412 35.2193L23.0415 35.2484ZM24.8756 33.3097L24.8532 34.8095L24.8534 34.8095L24.8756 33.3097ZM31.5979 33.3105L31.5785 31.8106L31.5785 31.8106L31.5979 33.3105ZM33.3556 35.1545L31.8558 35.1255L31.8558 35.1256L33.3556 35.1545ZM33.3481 42.1732L34.8481 42.1617L34.8481 42.1616L33.3481 42.1732ZM35.3985 44.2034L35.4142 42.7035L35.4142 42.7035L35.3985 44.2034ZM39.4243 44.2062L40.8789 43.8398L40.5933 42.7062H39.4243V44.2062ZM39.5436 44.6799L40.7107 45.6222L41.1811 45.0396L40.9982 44.3135L39.5436 44.6799ZM38.6873 45.7307L37.6234 44.6732L37.6232 44.6734L38.6873 45.7307ZM29.6886 54.7481L30.7483 55.8096L30.7484 55.8096L29.6886 54.7481ZM26.4977 54.7612L27.5578 53.7001L27.5578 53.7L26.4977 54.7612ZM17.6008 45.8444L16.5363 46.9013L16.5366 46.9015L17.6008 45.8444ZM16.6546 44.6971L15.2629 44.1374L14.9321 44.96L15.4932 45.6464L16.6546 44.6971ZM39.6668 11.6452V13.1452H40.7068L41.0715 12.1713L39.6668 11.6452ZM35.6426 11.6489L35.6222 10.1491L35.6222 10.1491L35.6426 11.6489ZM33.5321 13.7602L35.0321 13.7703L35.0321 13.7702L33.5321 13.7602ZM33.5375 20.309L35.0373 20.2842L35.0373 20.2841L33.5375 20.309ZM31.7433 22.0981L31.7257 23.598L31.7259 23.598L31.7433 22.0981ZM25.257 22.0872L25.2677 20.5873L25.2675 20.5873L25.257 22.0872ZM23.3781 20.1117L24.878 20.1013L24.878 20.1012L23.3781 20.1117ZM23.3701 13.7052L21.8702 13.7147L21.8702 13.7149L23.3701 13.7052ZM21.3689 11.6498L21.3908 10.1499L21.3907 10.1499L21.3689 11.6498ZM16.6546 11.6455L15.3996 10.8239L13.8796 13.1455H16.6546V11.6455ZM17.5351 10.3206L16.4652 9.2692L16.4652 9.2692L17.5351 10.3206ZM26.9925 0.742754L28.0641 1.79241L28.0642 1.79225L26.9925 0.742754ZM29.6257 0.674897L28.5528 1.72317L28.5529 1.72324L29.6257 0.674897ZM39.182 10.3539L40.2507 9.30143L40.2502 9.3009L39.182 10.3539ZM39.8309 11.2064L41.2356 11.7325L41.5241 10.9622L41.0296 10.3047L39.8309 11.2064ZM11.3187 16.6547H12.8187V13.5475L10.3857 15.4801L11.3187 16.6547ZM11.3187 39.831L10.4108 41.025L12.8187 42.8559V39.831H11.3187ZM10.0064 38.8238L8.94845 39.8872L8.94884 39.8876L10.0064 38.8238ZM0.951798 29.7693L-0.111248 30.8276L-0.111214 30.8276L0.951798 29.7693ZM0.951798 26.74L-0.110788 25.6813L-0.111017 25.6815L0.951798 26.74ZM9.90693 17.7853L8.84952 16.7214L8.84895 16.722L9.90693 17.7853ZM44.4123 39.292H42.9123V41.881L45.1583 40.5933L44.4123 39.292ZM44.4123 16.6547L45.2055 15.3816L42.9123 13.9528V16.6547H44.4123ZM45.543 17.3721L46.5903 16.2981L46.5901 16.298L45.543 17.3721ZM55.0679 26.7076L56.1161 25.6347L56.116 25.6345L55.0679 26.7076ZM55.1279 29.1667L56.1806 30.2353L56.1806 30.2353L55.1279 29.1667ZM45.4073 38.7116L46.4552 39.7849L46.4559 39.7843L45.4073 38.7116ZM16.852 45.7062C18.2432 45.7062 19.6763 45.7186 21.0955 45.703L21.0625 42.7032C19.6644 42.7185 18.2792 42.7062 16.852 42.7062V45.7062ZM21.0955 45.703C21.862 45.6946 22.9305 45.6277 23.6955 44.8786C24.4726 44.1175 24.5424 43.0447 24.5483 42.2786L21.5484 42.2552C21.5458 42.5948 21.5211 42.7709 21.5002 42.8547C21.4839 42.9201 21.493 42.8365 21.5965 42.7351C21.6977 42.6361 21.7746 42.6325 21.6943 42.6518C21.5986 42.6748 21.411 42.6993 21.0625 42.7032L21.0955 45.703ZM24.5483 42.2788C24.5669 39.9436 24.5869 37.5821 24.5412 35.2194L21.5418 35.2774C21.5865 37.5918 21.5671 39.9114 21.5484 42.2549L24.5483 42.2788ZM24.5412 35.2193C24.5366 34.9812 24.558 34.8419 24.5766 34.7715C24.593 34.7093 24.5979 34.7343 24.5527 34.7844C24.5034 34.8391 24.4602 34.8511 24.4812 34.8442C24.5157 34.8328 24.6257 34.8061 24.8532 34.8095L24.898 31.8098C24.0085 31.7965 23.0279 31.9955 22.3247 32.7755C21.6526 33.5209 21.5264 34.4824 21.5418 35.2776L24.5412 35.2193ZM24.8534 34.8095C27.11 34.843 29.3653 34.8395 31.6172 34.8104L31.5785 31.8106C29.3491 31.8394 27.122 31.8428 24.8979 31.8098L24.8534 34.8095ZM31.6172 34.8104C31.8291 34.8077 31.929 34.8323 31.9565 34.8412C31.9713 34.846 31.9215 34.8307 31.8656 34.77C31.8128 34.7127 31.8115 34.6767 31.8242 34.7236C31.8393 34.7793 31.8601 34.9029 31.8558 35.1255L34.8553 35.1834C34.8703 34.4051 34.7415 33.4641 34.072 32.7373C33.3784 31.9844 32.4234 31.7997 31.5785 31.8106L31.6172 34.8104ZM31.8558 35.1256C31.8105 37.4883 31.8302 39.8493 31.8482 42.1847L34.8481 42.1616C34.83 39.8177 34.8108 37.4982 34.8553 35.1833L31.8558 35.1256ZM31.8482 42.1846C31.8543 42.9908 31.9324 44.08 32.717 44.8536C33.4934 45.6193 34.5795 45.6949 35.3829 45.7033L35.4142 42.7035C35.0541 42.6997 34.8563 42.6737 34.7525 42.6483C34.6646 42.6268 34.7314 42.6268 34.8234 42.7176C34.917 42.8099 34.9205 42.8811 34.9009 42.803C34.8769 42.707 34.8508 42.5165 34.8481 42.1617L31.8482 42.1846ZM35.3828 45.7033C36.7348 45.7174 38.0995 45.7062 39.4243 45.7062V42.7062C38.0653 42.7062 36.7461 42.7174 35.4142 42.7035L35.3828 45.7033ZM37.9698 44.5726C38.0096 44.7308 38.0492 44.8881 38.0891 45.0463L40.9982 44.3135C40.9585 44.1559 40.9186 43.9975 40.8789 43.8398L37.9698 44.5726ZM38.3766 43.7376C37.9762 44.2334 37.8725 44.4226 37.6234 44.6732L39.7511 46.7882C40.1361 46.4008 40.5428 45.8302 40.7107 45.6222L38.3766 43.7376ZM37.6232 44.6734C34.6321 47.6839 31.6329 50.6871 28.6287 53.6866L30.7484 55.8096C33.7546 52.8081 36.7567 49.8019 39.7513 46.7879L37.6232 44.6734ZM28.6288 53.6865C28.3163 53.9984 28.1222 54.1583 27.9993 54.2376C27.8903 54.3079 27.9365 54.2499 28.0824 54.2494C28.2298 54.2488 28.2796 54.3075 28.1759 54.2409C28.057 54.1647 27.8667 54.0087 27.5578 53.7001L25.4375 55.8224C25.7893 56.1739 26.1613 56.5128 26.556 56.766C26.9659 57.029 27.4806 57.2517 28.0937 57.2494C28.7053 57.2471 29.2181 57.0215 29.6261 56.7582C30.0202 56.5039 30.3934 56.1639 30.7483 55.8096L28.6288 53.6865ZM27.5578 53.7C24.5878 50.7332 21.6219 47.7644 18.6651 44.7874L16.5366 46.9015C19.4974 49.8824 22.4663 52.8543 25.4375 55.8225L27.5578 53.7ZM18.6653 44.7876C18.3812 44.5015 18.2391 44.2653 17.8159 43.7477L15.4932 45.6464C15.6979 45.8968 16.1251 46.487 16.5363 46.9013L18.6653 44.7876ZM18.0462 45.2568C18.0792 45.175 18.1121 45.0932 18.145 45.0114C18.1779 44.9296 18.2108 44.8478 18.2437 44.766L15.4604 43.6465C15.4275 43.7283 15.3946 43.8101 15.3617 43.8919C15.3288 43.9737 15.2958 44.0555 15.2629 44.1374L18.0462 45.2568ZM39.6668 10.1452C38.3478 10.1452 36.9765 10.1306 35.6222 10.1491L35.6631 13.1488C36.9914 13.1307 38.3033 13.1452 39.6668 13.1452V10.1452ZM35.6222 10.1491C34.7819 10.1605 33.691 10.2552 32.9109 11.0347C32.1272 11.818 32.0378 12.9103 32.0322 13.7502L35.0321 13.7702C35.0345 13.4102 35.0618 13.2112 35.0881 13.1069C35.1102 13.0197 35.1121 13.0763 35.0315 13.1568C34.9516 13.2366 34.8972 13.2334 34.9891 13.2098C35.0972 13.1821 35.2999 13.1537 35.6631 13.1488L35.6222 10.1491ZM32.0322 13.7501C32.0175 15.9293 32.0012 18.1309 32.0377 20.3338L35.0373 20.2841C35.0015 18.1226 35.0174 15.9573 35.0321 13.7703L32.0322 13.7501ZM32.0377 20.3338C32.0412 20.5447 32.0176 20.6498 32.0067 20.6849C31.9992 20.709 32.0091 20.6664 32.0641 20.6129C32.1177 20.5608 32.1555 20.5556 32.121 20.5657C32.0771 20.5787 31.9673 20.6006 31.7607 20.5982L31.7259 23.598C32.5133 23.6071 33.4448 23.4541 34.1545 22.7647C34.8749 22.0648 35.0512 21.1216 35.0373 20.2842L32.0377 20.3338ZM31.7609 20.5982C29.6321 20.5732 27.3502 20.6021 25.2677 20.5873L25.2463 23.5872C27.4881 23.6031 29.5307 23.5722 31.7257 23.598L31.7609 20.5982ZM25.2675 20.5873C24.9343 20.5849 24.768 20.561 24.6936 20.5423C24.64 20.5289 24.7352 20.5436 24.843 20.6569C24.9455 20.7647 24.947 20.8446 24.9268 20.7559C24.9036 20.6537 24.8805 20.4587 24.878 20.1013L21.8781 20.1221C21.8834 20.8838 21.938 21.9552 22.6686 22.7238C23.4252 23.5197 24.5047 23.582 25.2465 23.5872L25.2675 20.5873ZM24.878 20.1012C24.8706 19.0408 24.872 17.9793 24.8737 16.9107C24.8753 15.8441 24.8771 14.7703 24.8701 13.6954L21.8702 13.7149C21.877 14.7756 21.8753 15.8372 21.8737 16.9061C21.8721 17.973 21.8706 19.047 21.8781 20.1222L24.878 20.1012ZM24.8701 13.6956C24.8649 12.8826 24.7804 11.8162 24.0278 11.0426C23.266 10.2595 22.1985 10.1617 21.3908 10.1499L21.3471 13.1496C21.6847 13.1545 21.8654 13.1823 21.9545 13.206C22.026 13.225 21.9615 13.2209 21.8775 13.1345C21.7952 13.0499 21.7963 12.9911 21.8173 13.0758C21.8421 13.1758 21.868 13.3676 21.8702 13.7147L24.8701 13.6956ZM21.3907 10.1499C19.9262 10.1286 18.4439 10.1455 16.6546 10.1455V13.1455C18.4904 13.1455 19.9105 13.1287 21.3471 13.1496L21.3907 10.1499ZM17.9095 12.4671C18.1298 12.1308 18.3141 11.8134 18.4188 11.6428C18.5419 11.4424 18.5862 11.391 18.6049 11.372L16.4652 9.2692C16.1947 9.54442 16.0043 9.84173 15.8621 10.0733C15.7016 10.3347 15.5903 10.5327 15.3996 10.8239L17.9095 12.4671ZM18.6049 11.372C21.7237 8.19839 24.9369 4.98475 28.0641 1.79241L25.921 -0.306906C22.7685 2.91125 19.6361 6.04254 16.4652 9.2692L18.6049 11.372ZM28.0642 1.79225C28.2284 1.62461 28.3405 1.54257 28.4031 1.50608C28.4587 1.47369 28.4432 1.49549 28.3735 1.49946C28.2967 1.50383 28.2536 1.48122 28.2696 1.48917C28.2988 1.50373 28.3938 1.56046 28.5528 1.72317L30.6986 -0.37338C30.0774 -1.00921 29.2459 -1.55512 28.2028 -1.49568C27.2133 -1.4393 26.4573 -0.854562 25.9208 -0.306743L28.0642 1.79225ZM28.5529 1.72324C31.7232 4.96758 34.9419 8.18931 38.1138 11.407L40.2502 9.3009C37.0562 6.06074 33.866 2.86798 30.6985 -0.373449L28.5529 1.72324ZM38.1132 11.4064C38.1544 11.4482 38.209 11.5146 38.2988 11.6401C38.3603 11.726 38.5155 11.9529 38.6322 12.1081L41.0296 10.3047C40.9315 10.1742 40.8863 10.1009 40.7391 9.89505C40.6202 9.72876 40.4578 9.51168 40.2507 9.30143L38.1132 11.4064ZM38.4262 10.6803C38.3985 10.7541 38.371 10.8279 38.3437 10.9009C38.3164 10.9741 38.2893 11.0467 38.2621 11.1191L41.0715 12.1713C41.0992 12.0975 41.1267 12.0238 41.154 11.9508C41.1814 11.8775 41.2085 11.805 41.2356 11.7325L38.4262 10.6803ZM9.81866 16.6547V39.831H12.8187V16.6547H9.81866ZM12.2266 38.6369C11.9006 38.3891 11.6109 38.1857 11.4282 38.0525C11.2275 37.9062 11.1323 37.828 11.0639 37.76L8.94884 39.8876C9.18774 40.125 9.4377 40.314 9.66084 40.4767C9.90202 40.6525 10.1147 40.7999 10.4108 41.025L12.2266 38.6369ZM11.0643 37.7604C8.04036 34.7521 5.02513 31.7347 2.01481 28.711L-0.111214 30.8276C2.9017 33.8539 5.92041 36.8747 8.94845 39.8872L11.0643 37.7604ZM2.01484 28.711C1.71588 28.4107 1.56735 28.2302 1.49582 28.1201C1.43361 28.0242 1.50009 28.0882 1.5 28.2546C1.49991 28.4208 1.43341 28.4847 1.49575 28.3888C1.56739 28.2786 1.71591 28.0985 2.01461 27.7985L-0.111017 25.6815C-0.446355 26.0182 -0.773613 26.3756 -1.0193 26.7534C-1.27428 27.1455 -1.49966 27.6479 -1.5 28.2529C-1.50034 28.8579 -1.27547 29.3607 -1.02048 29.7535C-0.774801 30.132 -0.447304 30.49 -0.111248 30.8276L2.01484 28.711ZM2.01438 27.7988C4.99314 24.8092 7.97461 21.8239 10.9649 18.8487L8.84895 16.722C5.85433 19.7015 2.86947 22.6902 -0.110788 25.6813L2.01438 27.7988ZM10.9643 18.8492C11.0634 18.7508 11.188 18.647 11.406 18.4798C11.6086 18.3244 11.9094 18.1011 12.2517 17.8292L10.3857 15.4801C10.0677 15.7327 9.83288 15.9055 9.57986 16.0996C9.34211 16.2821 9.09101 16.4814 8.84952 16.7214L10.9643 18.8492ZM45.9123 39.292V16.6547H42.9123V39.292H45.9123ZM43.6191 17.9278C43.8892 18.0961 44.1855 18.2568 44.3117 18.3298C44.4787 18.4263 44.5031 18.4531 44.4959 18.4461L46.5901 16.298C46.3173 16.0321 46.0221 15.8533 45.8131 15.7325C45.5632 15.588 45.4269 15.5195 45.2055 15.3816L43.6191 17.9278ZM44.4958 18.446C47.693 21.5638 50.8157 24.6513 54.0198 27.7807L56.116 25.6345C52.959 22.5512 49.7588 19.3879 46.5903 16.2981L44.4958 18.446ZM54.0197 27.7806C54.1531 27.911 54.2116 27.9984 54.2334 28.0386C54.2518 28.0725 54.2335 28.052 54.2312 27.99C54.2287 27.9245 54.2468 27.8857 54.2438 27.8919C54.2363 27.9072 54.1972 27.978 54.0752 28.0981L56.1806 30.2353C56.7775 29.6473 57.2659 28.8546 57.229 27.8768C57.1932 26.9285 56.6745 26.1802 56.1161 25.6347L54.0197 27.7806ZM54.0753 28.098C50.8408 31.2842 47.604 34.4665 44.3587 37.639L46.4559 39.7843C49.7051 36.6079 52.9449 33.4226 56.1806 30.2353L54.0753 28.098ZM44.3594 37.6384C44.4327 37.5668 44.4858 37.5521 44.3346 37.6321C44.2182 37.6937 43.9579 37.8235 43.6662 37.9907L45.1583 40.5933C45.3924 40.4591 45.5351 40.391 45.7375 40.2839C45.9051 40.1952 46.1929 40.041 46.4552 39.7849L44.3594 37.6384Z" fill="#212121" mask="url(#path-1-inside-1)"/>
</svg>
