<svg width="56" height="56" viewBox="0 0 56 56" fill="none" xmlns="http://www.w3.org/2000/svg">
<path d="M26.4971 33.7832H32.279C33.6027 33.7832 33.6046 31.7212 32.279 31.7212H26.4971C23.7093 31.7212 21.4406 29.4532 21.4406 26.6648C21.4406 23.8766 23.709 21.6083 26.4971 21.6083H34.9963C35.3398 21.6083 35.6436 21.4397 35.831 21.1811C35.8365 21.1763 35.8422 21.1719 35.8477 21.1674C37.3086 19.9657 38.7765 18.7574 40.0226 17.3346C41.2688 15.9119 42.2942 14.2521 42.7258 12.4105C43.1712 10.5119 42.9219 8.45346 42.168 6.66575C41.5466 5.19271 40.5847 3.83662 39.2347 2.9503C37.7335 1.96496 35.8653 1.55192 34.0875 1.78712C31.899 2.07679 29.868 3.33835 28.5914 5.13983C27.3151 6.941 26.7967 9.25006 27.1232 11.4335C27.4305 13.4904 28.4485 15.3915 29.762 17.0043C30.5118 17.9252 31.3568 18.7599 32.2473 19.5463H26.4974C22.572 19.5463 19.3789 22.7401 19.3789 26.6648C19.3789 30.5901 22.572 33.7832 26.4971 33.7832ZM29.3428 12.1689C28.5956 9.70219 29.4947 6.64204 31.4347 5.05075C32.47 4.2016 33.7392 3.77702 35.0081 3.77702C36.2736 3.77702 37.5389 4.19936 38.5727 5.04306L38.5913 5.05844C40.5725 6.6917 41.4435 9.96912 40.5738 12.5259C39.6545 15.2278 37.2525 17.3372 35.0094 19.1944C32.6363 17.2116 30.1677 14.89 29.3428 12.1689Z" fill="black"/>
<path d="M44.283 31.7212H40.4925C39.1688 31.7212 39.1669 33.7832 40.4925 33.7832H44.283C47.3633 33.7832 49.8691 36.2896 49.8691 39.3697C49.8691 42.4494 47.3633 44.9558 44.283 44.9558H34.6379C34.164 42.7801 32.2237 41.1452 29.9082 41.1452H28.0686L27.1301 40.1317C24.7912 37.6057 21.4757 36.157 18.0332 36.157H11.8956C10.8177 36.157 9.94032 37.034 9.94032 38.112V41.1452H8.68325C6.01339 41.1452 3.8418 43.3171 3.8418 45.9867C3.8418 48.1579 5.2985 50.0431 7.32974 50.6349C7.72259 52.6758 9.52119 54.2228 11.6748 54.2228C13.7602 54.2228 15.5121 52.7729 15.9783 50.8281H22.7943C23.2605 52.7729 25.0123 54.2228 27.0977 54.2228C29.2722 54.2228 31.0839 52.6456 31.4531 50.5756C33.0725 50.0331 34.2793 48.6729 34.6388 47.0178H44.283C48.4999 47.0178 51.9311 43.5866 51.9311 39.3697C51.9311 35.1524 48.4999 31.7212 44.283 31.7212ZM12.0023 38.219H18.0332C20.7223 38.219 23.3185 39.2796 25.2392 41.1452H12.0023V38.219ZM11.6752 52.1608C10.3719 52.1608 9.31131 51.1005 9.31131 49.797C9.31131 48.4934 10.3719 47.4331 11.6752 47.4331C12.978 47.4331 14.0387 48.4934 14.0387 49.797C14.0387 51.1005 12.978 52.1608 11.6752 52.1608ZM27.0977 52.1608C25.7942 52.1608 24.7342 51.1005 24.7342 49.797C24.7342 48.4934 25.7942 47.4331 27.0977 47.4331C28.4009 47.4331 29.4612 48.4934 29.4612 49.797C29.4612 51.1005 28.4009 52.1608 27.0977 52.1608ZM31.2951 48.396C30.7074 46.6404 29.0488 45.3711 27.0977 45.3711C25.0123 45.3711 23.2605 46.8214 22.7946 48.7661H15.9783C15.5124 46.8214 13.7602 45.3711 11.6752 45.3711C9.69423 45.3711 8.0129 46.6798 7.45022 48.4777C6.52865 48.0192 5.90412 47.0643 5.90412 45.9863C5.90412 44.4537 7.15061 43.2069 8.68357 43.2069H10.9718L27.62 43.2088C27.6284 43.2088 27.6364 43.2072 27.6447 43.2069H29.9086C31.4412 43.2069 32.688 44.4537 32.688 45.9863C32.6877 47.0053 32.1362 47.9122 31.2951 48.396Z" fill="black"/>
<path d="M38.9342 9.69079C38.9342 7.52625 37.1734 5.76514 35.0082 5.76514C32.8436 5.76514 31.0825 7.52625 31.0825 9.69079C31.0825 11.856 32.8436 13.6171 35.0082 13.6171C37.1734 13.6171 38.9342 11.856 38.9342 9.69079ZM33.1445 9.69079C33.1445 8.66315 33.9805 7.82714 35.0082 7.82714C36.0361 7.82714 36.8722 8.66315 36.8722 9.69079C36.8722 10.7187 36.0361 11.5551 35.0082 11.5551C33.9805 11.5551 33.1445 10.7187 33.1445 9.69079Z" fill="black"/>
<path d="M35.7168 32.0226C35.3201 32.419 35.3205 33.0839 35.7168 33.4806C36.1129 33.877 36.7784 33.877 37.1748 33.4806C37.5597 33.0951 37.5722 32.4571 37.2053 32.0556C36.8153 31.6294 36.126 31.6134 35.7168 32.0226C35.9085 31.8307 35.5249 32.2142 35.7168 32.0226Z" fill="black"/>
<path d="M27.0976 48.7656C26.5374 48.7656 26.0664 49.2367 26.0664 49.7965C26.0664 50.3569 26.5374 50.8276 27.0976 50.8276C27.642 50.8276 28.1025 50.3841 28.1265 49.8416C28.1521 49.2649 27.676 48.7656 27.0976 48.7656Z" fill="black"/>
<path d="M11.6747 48.7656C11.1146 48.7656 10.6436 49.2367 10.6436 49.7965C10.6436 50.3569 11.1146 50.8276 11.6747 50.8276C12.2191 50.8276 12.6796 50.3841 12.7036 49.8416C12.7293 49.2649 12.2531 48.7656 11.6747 48.7656Z" fill="black"/>
</svg>
