<svg width="288" height="47" viewBox="0 0 288 47" fill="none" xmlns="http://www.w3.org/2000/svg">
<path opacity="0.05" d="M21.6 29.144V35H1.024V30.36L11.264 18.456H1.344V12.6H21.088V17.24L10.848 29.144H21.6ZM48.8168 29.304V35H30.1927V12.6H48.4008V18.296H37.6167V20.92H47.0888V26.36H37.6167V29.304H48.8168ZM67.724 29.368H65.676V35H58.124V12.6H68.908C70.9773 12.6 72.78 12.9413 74.316 13.624C75.852 14.3067 77.036 15.288 77.868 16.568C78.7 17.848 79.116 19.3413 79.116 21.048C79.116 22.648 78.7533 24.0453 78.028 25.24C77.3027 26.4347 76.2573 27.384 74.892 28.088L79.596 35H71.532L67.724 29.368ZM71.5 21.048C71.5 20.216 71.244 19.576 70.732 19.128C70.22 18.6587 69.452 18.424 68.428 18.424H65.676V23.672H68.428C69.452 23.672 70.22 23.448 70.732 23C71.244 22.5307 71.5 21.88 71.5 21.048ZM100.112 35.512C97.7011 35.512 95.5357 35.0107 93.6157 34.008C91.6957 33.0053 90.1917 31.6187 89.1037 29.848C88.0157 28.056 87.4717 26.04 87.4717 23.8C87.4717 21.56 88.0157 19.5547 89.1037 17.784C90.1917 15.992 91.6957 14.5947 93.6157 13.592C95.5357 12.5893 97.7011 12.088 100.112 12.088C102.522 12.088 104.688 12.5893 106.608 13.592C108.528 14.5947 110.032 15.992 111.12 17.784C112.208 19.5547 112.752 21.56 112.752 23.8C112.752 26.04 112.208 28.056 111.12 29.848C110.032 31.6187 108.528 33.0053 106.608 34.008C104.688 35.0107 102.522 35.512 100.112 35.512ZM100.112 29.4C101.05 29.4 101.893 29.176 102.64 28.728C103.408 28.2587 104.016 27.608 104.464 26.776C104.912 25.9227 105.136 24.9307 105.136 23.8C105.136 22.6693 104.912 21.688 104.464 20.856C104.016 20.0027 103.408 19.352 102.64 18.904C101.893 18.4347 101.05 18.2 100.112 18.2C99.1731 18.2 98.3197 18.4347 97.5517 18.904C96.8051 19.352 96.2077 20.0027 95.7597 20.856C95.3117 21.688 95.0877 22.6693 95.0877 23.8C95.0877 24.9307 95.3117 25.9227 95.7597 26.776C96.2077 27.608 96.8051 28.2587 97.5517 28.728C98.3197 29.176 99.1731 29.4 100.112 29.4Z" fill="#212121"/>
<path opacity="0.05" d="M174.391 12.6L167.223 35H159.127L155.511 23.032L151.703 35H143.607L136.439 12.6H144.215L148.119 25.336L152.247 12.6H159.191L163.095 25.496L167.223 12.6H174.391ZM196.919 31.096H188.407L186.903 35H179.223L189.015 12.6H196.439L206.231 35H198.423L196.919 31.096ZM194.839 25.656L192.663 20.024L190.487 25.656H194.839ZM222.188 35.512C220.332 35.512 218.519 35.3093 216.748 34.904C214.999 34.4773 213.559 33.912 212.428 33.208L214.86 27.704C215.927 28.3227 217.122 28.824 218.444 29.208C219.767 29.5707 221.036 29.752 222.252 29.752C223.298 29.752 224.044 29.656 224.492 29.464C224.94 29.2507 225.164 28.9413 225.164 28.536C225.164 28.0667 224.866 27.7147 224.268 27.48C223.692 27.2453 222.732 26.9893 221.388 26.712C219.66 26.3493 218.22 25.9653 217.068 25.56C215.916 25.1333 214.914 24.4507 214.06 23.512C213.207 22.552 212.78 21.2613 212.78 19.64C212.78 18.232 213.175 16.952 213.964 15.8C214.754 14.648 215.927 13.7413 217.484 13.08C219.063 12.4187 220.972 12.088 223.212 12.088C224.748 12.088 226.252 12.2587 227.724 12.6C229.218 12.92 230.53 13.4 231.66 14.04L229.388 19.512C227.191 18.4027 225.111 17.848 223.148 17.848C221.207 17.848 220.236 18.3173 220.236 19.256C220.236 19.704 220.524 20.0453 221.1 20.28C221.676 20.4933 222.626 20.728 223.948 20.984C225.655 21.304 227.095 21.6773 228.268 22.104C229.442 22.5093 230.455 23.1813 231.308 24.12C232.183 25.0587 232.62 26.3387 232.62 27.96C232.62 29.368 232.226 30.648 231.436 31.8C230.647 32.9307 229.463 33.8373 227.884 34.52C226.327 35.1813 224.428 35.512 222.188 35.512ZM245.819 18.456H239.259V12.6H259.931V18.456H253.371V35H245.819V18.456ZM286.917 29.304V35H268.293V12.6H286.501V18.296H275.717V20.92H285.189V26.36H275.717V29.304H286.917Z" fill="#212121"/>
</svg>
