<svg width="852" height="303" viewBox="0 0 852 303" fill="none" xmlns="http://www.w3.org/2000/svg">
<path opacity="0.05" d="M81 109.04V131H3.84V113.6L42.24 68.96H5.04V47H79.08V64.4L40.68 109.04H81ZM183.063 109.64V131H113.223V47H181.503V68.36H141.063V78.2H176.583V98.6H141.063V109.64H183.063ZM253.965 109.88H246.285V131H217.965V47H258.405C266.165 47 272.925 48.28 278.685 50.84C284.445 53.4 288.885 57.08 292.005 61.88C295.125 66.68 296.685 72.28 296.685 78.68C296.685 84.68 295.325 89.92 292.605 94.4C289.885 98.88 285.965 102.44 280.845 105.08L298.485 131H268.245L253.965 109.88ZM268.125 78.68C268.125 75.56 267.165 73.16 265.245 71.48C263.325 69.72 260.445 68.84 256.605 68.84H246.285V88.52H256.605C260.445 88.52 263.325 87.68 265.245 86C267.165 84.24 268.125 81.8 268.125 78.68ZM375.419 132.92C366.379 132.92 358.259 131.04 351.059 127.28C343.859 123.52 338.219 118.32 334.139 111.68C330.059 104.96 328.019 97.4 328.019 89C328.019 80.6 330.059 73.08 334.139 66.44C338.219 59.72 343.859 54.48 351.059 50.72C358.259 46.96 366.379 45.08 375.419 45.08C384.459 45.08 392.579 46.96 399.779 50.72C406.979 54.48 412.619 59.72 416.699 66.44C420.779 73.08 422.819 80.6 422.819 89C422.819 97.4 420.779 104.96 416.699 111.68C412.619 118.32 406.979 123.52 399.779 127.28C392.579 131.04 384.459 132.92 375.419 132.92ZM375.419 110C378.939 110 382.099 109.16 384.899 107.48C387.779 105.72 390.059 103.28 391.739 100.16C393.419 96.96 394.259 93.24 394.259 89C394.259 84.76 393.419 81.08 391.739 77.96C390.059 74.76 387.779 72.32 384.899 70.64C382.099 68.88 378.939 68 375.419 68C371.899 68 368.699 68.88 365.819 70.64C363.019 72.32 360.779 74.76 359.099 77.96C357.419 81.08 356.579 84.76 356.579 89C356.579 93.24 357.419 96.96 359.099 100.16C360.779 103.28 363.019 105.72 365.819 107.48C368.699 109.16 371.899 110 375.419 110Z" fill="#212121"/>
<path opacity="0.05" d="M425.52 174L398.64 258H368.28L354.72 213.12L340.44 258H310.08L283.2 174H312.36L327 221.76L342.48 174H368.52L383.16 222.36L398.64 174H425.52ZM510.002 243.36H478.082L472.442 258H443.642L480.362 174H508.202L544.922 258H515.642L510.002 243.36ZM502.202 222.96L494.042 201.84L485.882 222.96H502.202ZM604.762 259.92C597.802 259.92 591.002 259.16 584.362 257.64C577.802 256.04 572.402 253.92 568.162 251.28L577.282 230.64C581.282 232.96 585.762 234.84 590.722 236.28C595.682 237.64 600.442 238.32 605.002 238.32C608.922 238.32 611.722 237.96 613.402 237.24C615.082 236.44 615.922 235.28 615.922 233.76C615.922 232 614.802 230.68 612.562 229.8C610.402 228.92 606.802 227.96 601.762 226.92C595.282 225.56 589.882 224.12 585.562 222.6C581.242 221 577.482 218.44 574.282 214.92C571.082 211.32 569.482 206.48 569.482 200.4C569.482 195.12 570.962 190.32 573.922 186C576.882 181.68 581.282 178.28 587.122 175.8C593.042 173.32 600.202 172.08 608.602 172.08C614.362 172.08 620.002 172.72 625.522 174C631.122 175.2 636.042 177 640.282 179.4L631.762 199.92C623.522 195.76 615.722 193.68 608.362 193.68C601.082 193.68 597.442 195.44 597.442 198.96C597.442 200.64 598.522 201.92 600.682 202.8C602.842 203.6 606.402 204.48 611.362 205.44C617.762 206.64 623.162 208.04 627.562 209.64C631.962 211.16 635.762 213.68 638.962 217.2C642.242 220.72 643.882 225.52 643.882 231.6C643.882 236.88 642.402 241.68 639.442 246C636.482 250.24 632.042 253.64 626.122 256.2C620.282 258.68 613.162 259.92 604.762 259.92ZM693.377 195.96H668.777V174H746.297V195.96H721.697V258H693.377V195.96ZM847.493 236.64V258H777.653V174H845.933V195.36H805.493V205.2H841.013V225.6H805.493V236.64H847.493Z" fill="#212121"/>
</svg>
